<svg width="691" height="691" viewBox="0 0 691 691" fill="none" xmlns="http://www.w3.org/2000/svg">
<path d="M345.853 17.644L348.758 299.615L386.98 20.2316L354.522 300.343L427.46 27.9534L360.15 301.788L466.652 40.6878L365.553 303.927L503.939 58.2338L370.645 306.727L538.733 80.3148L375.345 310.142L570.486 106.583L379.581 314.119L598.695 136.623L383.285 318.596L622.918 169.962L386.398 323.502L642.77 206.074L388.872 328.76L657.94 244.389L390.668 334.286L668.189 284.304L391.757 339.994L673.354 325.188L392.121 345.793L673.354 366.397L391.757 351.592L668.189 407.282L390.668 357.299L657.94 447.196L388.872 362.825L642.77 485.512L386.398 368.083L622.918 521.624L383.285 372.989L598.695 554.963L379.581 377.466L570.486 585.003L375.345 381.444L538.733 611.271L370.645 384.859L503.939 633.352L365.553 387.658L466.652 650.898L360.15 389.797L427.46 663.632L354.522 391.242L386.98 671.354L348.758 391.97L345.853 673.941L342.947 391.97L304.725 671.354L337.183 391.242L264.245 663.632L331.555 389.797L225.053 650.898L326.152 387.658L187.766 633.352L321.06 384.859L152.972 611.271L316.36 381.444L121.219 585.003L312.124 377.466L93.0096 554.963L308.42 372.989L68.7874 521.624L305.307 368.083L48.9347 485.512L302.833 362.825L33.7646 447.196L301.037 357.299L23.5163 407.282L299.948 351.592L18.3514 366.397L299.584 345.793L18.3514 325.188L299.948 339.994L23.5163 284.304L301.037 334.286L33.7646 244.389L302.833 328.76L48.9347 206.074L305.307 323.502L68.7874 169.962L308.42 318.596L93.0096 136.623L312.124 314.119L121.219 106.583L316.36 310.142L152.972 80.3148L321.06 306.727L187.766 58.2338L326.152 303.927L225.053 40.6878L331.555 301.788L264.245 27.9534L337.183 300.343L304.725 20.2316L342.947 299.615L345.853 17.644Z" fill="#070707"/>
<path d="M342.989 17.654L348.142 303.521L384.138 19.8825L353.421 304.141L424.683 27.2508L358.582 305.418L463.985 39.6427L363.541 307.332L501.424 56.8627L368.222 309.852L536.409 78.6392L372.55 312.939L568.389 104.629L376.456 316.544L596.86 134.422L379.881 320.611L621.372 167.548L382.768 325.074L641.539 203.485L385.073 329.864L657.043 241.667L386.76 334.905L667.64 281.491L387.802 340.118L673.161 322.328L388.182 345.421L673.521 363.536L387.894 350.729L668.713 404.464L386.944 355.959L658.813 444.466L385.345 361.029L643.978 482.913L383.124 365.859L624.441 519.196L380.315 370.372L600.511 552.746L376.962 374.497L572.564 583.031L373.119 378.17L541.043 609.575L368.846 381.332L506.442 631.958L364.21 383.934L469.31 649.829L359.284 385.934L430.23 662.905L354.147 387.301L389.82 670.98L348.879 388.013L348.716 673.926L343.563 388.059L307.567 671.698L338.283 387.439L267.022 664.329L333.123 386.162L227.72 651.938L328.163 384.248L190.281 634.718L323.483 381.728L155.295 612.941L319.155 378.641L123.315 586.951L315.248 375.036L94.8444 557.158L311.824 370.97L70.3322 524.032L308.937 366.506L50.1651 488.095L306.631 361.716L34.6612 449.913L304.944 356.675L24.0649 410.09L303.903 351.462L18.5434 369.252L303.523 346.16L18.1838 328.044L303.81 340.851L22.9917 287.116L304.761 335.621L32.8914 247.114L306.359 330.551L47.7266 208.668L308.581 325.721L67.2634 172.384L311.39 321.208L91.1937 138.835L314.742 317.083L119.14 108.549L318.586 313.41L150.662 82.0056L322.859 310.248L185.262 59.6218L327.495 307.646L222.395 41.751L332.42 305.646L261.475 28.6751L337.558 304.28L301.885 20.6003L342.826 303.567L342.989 17.654Z" fill="url(#paint0_radial_421_814)"/>
<path d="M337.264 17.756L346.731 321.853L378.445 19.2661L349.725 322.152L419.113 25.9256L352.657 322.824L458.625 37.6297L355.482 323.858L496.359 54.1937L358.155 325.237L531.719 75.3563L360.634 326.941L564.148 100.784L362.881 328.943L593.134 130.075L364.858 331.209L618.221 162.769L366.536 333.706L639.012 198.349L367.888 336.394L655.18 236.254L368.892 339.23L666.47 275.887L369.533 342.169L672.703 316.622L369.8 345.165L673.782 357.817L369.69 348.171L669.689 398.822L369.204 351.14L660.489 438.991L368.349 354.025L646.327 477.691L367.14 356.779L627.426 514.31L365.595 359.36L604.085 548.272L363.739 361.728L576.671 579.04L361.601 363.844L545.618 606.13L359.214 365.675L511.413 629.114L356.617 367.193L474.598 647.63L353.85 368.373L435.753 661.386L350.957 369.197L395.489 670.165L347.983 369.652L354.443 673.828L344.976 369.731L313.262 672.318L341.982 369.432L272.594 665.659L339.05 368.761L233.082 653.955L336.225 367.727L195.348 637.391L333.552 366.347L159.988 616.228L331.072 364.643L127.559 590.801L328.826 362.642L98.5726 561.509L326.849 360.375L73.486 528.816L325.171 357.878L52.6948 493.236L323.819 355.191L36.5269 455.33L322.815 352.355L25.2372 415.698L322.174 349.416L19.0039 374.963L321.907 346.419L17.9252 333.768L322.017 343.413L22.018 292.762L322.503 340.444L31.218 252.593L323.358 337.56L45.38 213.894L324.567 334.805L64.2806 177.274L326.112 332.224L87.6218 143.313L327.968 329.857L115.035 112.544L330.106 327.741L146.089 85.4544L332.493 325.909L180.293 62.4701L335.09 324.392L217.109 43.954L337.857 323.211L255.954 30.1981L340.75 322.387L296.217 21.4193L343.724 321.932L337.264 17.756Z" fill="url(#paint1_radial_421_814)"/>
<path d="M363.027 18.0944L347.286 333.406L403.963 22.8309L348.827 333.684L443.982 32.6606L350.321 334.152L482.455 47.4287L351.745 334.804L518.772 66.9022L353.076 335.629L552.363 90.7739L354.293 336.614L582.697 118.667L355.377 337.745L609.296 150.143L356.311 339.002L631.74 184.704L357.079 340.366L649.676 221.805L357.671 341.816L662.82 260.862L358.076 343.329L670.965 301.258L358.289 344.88L673.983 342.357L358.305 346.446L671.827 383.51L358.125 348.002L664.529 424.068L357.752 349.522L652.206 463.391L357.19 350.984L635.051 500.86L356.45 352.364L613.336 535.884L355.543 353.641L587.402 567.909L354.483 354.793L557.659 596.432L353.287 355.804L524.575 621.002L351.974 356.657L488.673 641.232L350.564 357.339L450.519 656.802L349.08 357.838L410.714 667.468L347.545 358.148L369.886 673.061L345.983 358.262L328.679 673.492L344.419 358.18L287.742 668.756L342.878 357.903L247.723 658.926L341.384 357.435L209.251 644.158L339.96 356.783L172.933 624.684L338.629 355.958L139.342 600.813L337.412 354.972L109.008 572.919L336.328 353.842L82.4091 541.444L335.395 352.585L59.965 506.883L334.626 351.221L42.0294 469.781L334.034 349.771L28.8853 430.724L333.629 348.258L20.74 390.328L333.416 346.707L17.7219 349.23L333.4 345.141L19.8787 308.077L333.58 343.585L27.1762 267.519L333.954 342.064L39.4994 228.195L334.515 340.602L56.654 190.726L335.255 339.222L78.3695 155.703L336.162 337.946L104.303 123.677L337.222 336.793L134.047 95.1547L338.418 335.782L167.13 70.5847L339.731 334.93L203.032 50.3549L341.141 334.248L241.187 34.7844L342.625 333.749L280.992 24.1187L344.16 333.439L321.82 18.5259L345.722 333.324L363.027 18.0944Z" fill="url(#paint2_radial_421_814)"/>
<defs>
<radialGradient id="paint0_radial_421_814" cx="0" cy="0" r="1" gradientUnits="userSpaceOnUse" gradientTransform="translate(345.852 345.79) rotate(89.5) scale(328.149)">
<stop stop-color="#0F012F"/>
<stop offset="1" stop-color="#5100FE"/>
</radialGradient>
<radialGradient id="paint1_radial_421_814" cx="0" cy="0" r="1" gradientUnits="userSpaceOnUse" gradientTransform="translate(345.853 345.792) rotate(88.5) scale(328.149)">
<stop stop-color="#0CBC7D"/>
<stop offset="1" stop-color="#FE00C6"/>
</radialGradient>
<radialGradient id="paint2_radial_421_814" cx="0" cy="0" r="1" gradientUnits="userSpaceOnUse" gradientTransform="translate(345.853 345.793) rotate(93) scale(328.149)">
<stop stop-color="#5AE8FF"/>
<stop offset="1" stop-color="#F73BCD"/>
</radialGradient>
</defs>
</svg>
