<svg width="8506" height="805" viewBox="0 0 8506 805" fill="none" xmlns="http://www.w3.org/2000/svg">
<circle cx="225" cy="580" r="225" fill="#905CFB"/>
<circle cx="649" cy="580" r="225" fill="#905CFB" fill-opacity="0.9"/>
<circle cx="1073" cy="580" r="225" fill="#905CFB" fill-opacity="0.8"/>
<circle cx="1497" cy="580" r="225" fill="#905CFB" fill-opacity="0.7"/>
<circle cx="1921" cy="580" r="225" fill="#905CFB" fill-opacity="0.6"/>
<circle cx="2345" cy="580" r="225" fill="#905CFB" fill-opacity="0.5"/>
<circle cx="2769" cy="580" r="225" fill="#905CFB" fill-opacity="0.4"/>
<circle cx="3193" cy="580" r="225" fill="#3D2AAE" fill-opacity="0.3"/>
<circle cx="3617" cy="580" r="225" fill="#3D2AAE" fill-opacity="0.2"/>
<circle cx="4041" cy="580" r="225" fill="#3D2AAE" fill-opacity="0.1"/>
<circle cx="4465" cy="580" r="225" fill="#5AE8FF" fill-opacity="0.1"/>
<circle cx="4889" cy="580" r="225" fill="#5AE8FF" fill-opacity="0.2"/>
<circle cx="5313" cy="580" r="225" fill="#5AE8FF" fill-opacity="0.3"/>
<circle cx="5737" cy="580" r="225" fill="#5AE8FF" fill-opacity="0.4"/>
<circle cx="6161" cy="580" r="225" fill="#5AE8FF" fill-opacity="0.5"/>
<circle cx="6585" cy="580" r="225" fill="#5AE8FF" fill-opacity="0.6"/>
<circle cx="7009" cy="580" r="225" fill="#5AE8FF" fill-opacity="0.7"/>
<circle cx="7433" cy="580" r="225" fill="#5AE8FF" fill-opacity="0.8"/>
<circle cx="7857" cy="580" r="225" fill="#5AE8FF" fill-opacity="0.9"/>
<circle cx="8281" cy="580" r="225" fill="#5AE8FF"/>
</svg>
