<svg width="67" height="67" viewBox="0 0 67 67" fill="none" xmlns="http://www.w3.org/2000/svg">
<path d="M29.5625 61.9742L28.9656 61.8515L28.5751 63.7815L27.4316 63.5528C26.5391 63.3687 25.8585 63.7759 25.6967 64.5848C25.535 65.3936 26.0091 66.0351 26.9016 66.2192L28.6476 66.5706L29.5625 61.9742ZM28.4747 64.317L28.1567 65.918L27.0244 65.6893C26.4833 65.5777 26.2155 65.2095 26.3103 64.7131C26.4108 64.211 26.8012 63.9879 27.3423 64.0939L28.4747 64.317ZM18.7965 58.3204L19.0921 60.8753C18.8266 60.8366 18.5557 60.8861 18.321 61.016C18.0862 61.146 17.9006 61.3493 17.7924 61.5949C17.4577 62.3033 17.7701 63.0173 18.5733 63.4022L20.0962 64.1274L22.0876 59.8823L21.5354 59.6202L20.6484 61.5168L19.7113 61.0705L19.4268 58.6161L18.7965 58.3204ZM19.7782 63.3743L18.8634 62.9392C18.3446 62.6938 18.155 62.2921 18.3614 61.8626C18.5566 61.4275 18.9861 61.3271 19.5049 61.5725L20.4141 62.0076L19.7782 63.3743ZM15.126 55.548C14.0996 54.7002 12.7162 54.8675 11.8348 55.9497C10.9646 57.0319 11.0818 58.4264 12.1137 59.2687C13.1457 60.1222 14.5291 59.9549 15.4049 58.8783C16.2807 57.7905 16.1635 56.3959 15.126 55.548ZM14.7913 55.9776C15.5388 56.5912 15.6001 57.651 14.9252 58.4766C14.2502 59.3134 13.2071 59.4695 12.4596 58.8559C11.6954 58.2312 11.6452 57.1769 12.3201 56.3457C12.9895 55.509 14.0271 55.3528 14.7857 55.9776H14.7913ZM11.0371 51.5763L10.2339 50.4328C9.4808 49.3618 8.20339 48.9936 6.97617 49.8694C5.74896 50.7396 5.66529 52.0728 6.41835 53.1494L7.21604 54.2874L11.0371 51.5708V51.5763ZM10.245 51.3978L7.31087 53.4785L6.87019 52.8482C6.35141 52.1119 6.29563 51.1189 7.33876 50.3826C8.38189 49.6407 9.27999 50.0256 9.79876 50.7675L10.245 51.3978ZM6.45182 43.2034C6.08923 42.1938 5.26365 41.7363 4.27631 42.0878L1.39236 43.1309L1.59317 43.6887L4.50501 42.6344C5.15209 42.4057 5.69318 42.7125 5.93304 43.3875C6.17291 44.0569 5.9442 44.637 5.3027 44.8657L2.38528 45.9144L2.58052 46.4778L5.47005 45.4403C6.45182 45.0889 6.80883 44.2075 6.45182 43.2034ZM4.78393 35.3102C4.70025 34.3061 4.08665 33.62 3.18297 33.4582L3.10488 34.0774C3.76869 34.189 4.18148 34.6353 4.23726 35.3604C4.31535 36.3087 3.72406 37.0506 2.52474 37.1455C1.331 37.2459 0.628139 36.6099 0.550044 35.6616C0.494261 34.9365 0.840113 34.401 1.50392 34.2002L1.32542 33.6144C0.4329 33.8766 -0.0747186 34.6743 0.00895496 35.7007C0.0982068 36.8721 0.968412 37.9041 2.57494 37.7758C4.18706 37.6419 4.87876 36.4872 4.78393 35.3102ZM4.99032 29.0124L5.07957 28.4099L0.985147 27.774L1.20828 26.3069L0.672765 26.2233L0.131676 29.771L0.667187 29.8547L0.890317 28.3765L4.99032 29.0124ZM5.49236 23.925L6.14502 24.1649L6.36815 23.5513L5.71549 23.3059L5.49236 23.925ZM10.8809 15.2844L11.8292 14.258C12.7106 13.2929 12.7999 11.9597 11.6954 10.9333C10.5909 9.90694 9.27441 10.1022 8.38747 11.0728L7.45032 12.0992L10.8809 15.2844ZM10.8865 14.4699L8.25359 12.0211L8.77237 11.4521C9.38597 10.7883 10.3343 10.5261 11.2714 11.3963C12.2086 12.2665 12.0189 13.2371 11.4109 13.901L10.8865 14.4699ZM16.5205 9.89021L19.0865 8.29483L18.8076 7.82626L16.7492 9.10368L15.879 7.68123L17.4967 6.67715L17.2067 6.20857L15.589 7.21266L14.8694 6.04123L16.8608 4.80286L16.5763 4.33987L14.0661 5.90177L16.5205 9.89021ZM24.8321 5.86272C25.8083 5.5615 26.2992 4.85864 26.0593 4.09442C25.5127 2.30939 23.1586 3.77089 22.8463 2.74449C22.7235 2.34286 22.9913 1.98585 23.5659 1.80735C24.1237 1.62884 24.6034 1.8185 24.8488 2.27592L25.3118 1.90776C24.9883 1.27742 24.2241 1.03197 23.4041 1.28857C22.5227 1.56748 22.043 2.23687 22.2605 2.92857C22.7459 4.51837 25.0943 3.09592 25.468 4.28966C25.6019 4.73592 25.3007 5.14871 24.6871 5.34395C24.4008 5.43812 24.0897 5.42162 23.815 5.29771C23.5404 5.1738 23.3221 4.95147 23.2033 4.67456L22.7068 5.02041C23.1084 5.79579 23.9675 6.13606 24.8265 5.86272H24.8321ZM29.8693 4.72476L30.4773 4.66898L30.0255 0L29.4174 0.0613609L29.8693 4.72476ZM36.9146 4.81959C37.5728 4.90327 38.2087 4.68572 38.4765 4.23946L38.3872 4.95347L38.9395 5.02599L39.2407 2.62735L37.0485 2.34844L36.9871 2.87279L38.6048 3.07918C38.4821 3.89361 37.8573 4.39007 36.9871 4.27851C36.0555 4.15578 35.4531 3.41946 35.6037 2.23687C35.7487 1.05429 36.5185 0.485306 37.4612 0.608028C38.1976 0.702858 38.6661 1.16585 38.7164 1.83524L39.33 1.79061C39.2574 0.870204 38.5657 0.200817 37.5282 0.0669393C36.3679 -0.0780948 35.1797 0.56898 34.9789 2.15878C34.7781 3.74299 35.7599 4.66898 36.9146 4.81959ZM42.5319 6.01891L43.0785 6.2532L44.5121 2.82259L45.254 7.17361L45.8788 7.43579L47.6862 3.11265L47.1339 2.88395L45.6947 6.32014L44.9584 1.95796L44.3392 1.69578L42.5319 6.01891ZM49.8059 8.99211L49.3987 9.56109L49.9342 9.94599L50.3358 9.37701L49.8059 8.99211ZM56.5221 16.6008L56.8624 17.1029L60.7281 14.4476L60.3822 13.9456L56.5221 16.5952V16.6008ZM59.1215 20.924L59.6292 22.2181C60.1089 23.4453 61.2636 24.098 62.6637 23.5401C64.0639 22.9823 64.4655 21.7105 63.9858 20.4889L63.4781 19.1947L59.1215 20.924ZM59.8467 21.281L63.1937 19.9533L63.4726 20.6729C63.8073 21.5097 63.6232 22.4859 62.435 22.96C61.2469 23.4286 60.4603 22.8373 60.1312 22.0006L59.8523 21.281H59.8467ZM61.4811 28.3709L61.7935 31.3831L62.3346 31.3274L62.0892 28.9231L63.7459 28.7502L63.9411 30.6412L64.4878 30.5855L64.2926 28.6889L65.6648 28.5494L65.9047 30.8811L66.4458 30.8253L66.139 27.8856L61.4811 28.3765V28.3709ZM61.7656 36.1916L61.6708 36.7773L65.3301 37.4021L61.2747 39.109L61.1632 39.7784L65.782 40.5593L65.8824 39.9736L62.2007 39.3489L66.2728 37.6475L66.3844 36.9781L61.7656 36.1916ZM59.4785 44.7988L59.2387 45.3566L63.0319 47.0245L62.4406 48.3856L62.9371 48.6087L64.3651 45.3176L63.863 45.0944L63.2718 46.4667L59.4785 44.7988ZM57.119 49.2112L56.7675 49.7132L60.6165 52.3908L60.9624 51.8887L57.1134 49.2112H57.119ZM53.2142 53.9583L52.7791 54.3822L55.6575 57.3666L54.5976 58.4041L54.9713 58.7946L57.5373 56.2844L57.158 55.8939L56.0981 56.937L53.2142 53.9583ZM48.3611 57.8017L47.8312 58.114L48.8353 59.8042L48.8074 63.0006L49.3987 62.6436V60.1445L51.5742 61.3383L52.1655 60.9812L49.3596 59.4863L48.3611 57.8017ZM43.1901 61.0984L42.967 60.4402L42.3534 60.6466L42.5709 61.3104L43.1901 61.0984Z" fill="black"/>
</svg>
