<svg width="20" height="19" viewBox="0 0 20 19" fill="none" xmlns="http://www.w3.org/2000/svg">
<rect x="1" y="1.20197" width="18" height="16.9167" rx="8.45834" fill="black"/>
<path d="M13.7917 3.70197H6.20833C5.4903 3.70283 4.80193 3.98844 4.2942 4.49617C3.78648 5.00389 3.50086 5.69227 3.5 6.4103L3.5 12.9103C3.50086 13.6283 3.78648 14.3167 4.2942 14.8244C4.80193 15.3322 5.4903 15.6178 6.20833 15.6186H13.7917C14.5097 15.6178 15.1981 15.3322 15.7058 14.8244C16.2135 14.3167 16.4991 13.6283 16.5 12.9103V6.4103C16.4991 5.69227 16.2135 5.00389 15.7058 4.49617C15.1981 3.98844 14.5097 3.70283 13.7917 3.70197ZM6.20833 4.7853H13.7917C14.116 4.78594 14.4327 4.88362 14.7011 5.06578C14.9695 5.24793 15.1772 5.50623 15.2975 5.80742L11.1494 9.95605C10.8441 10.2601 10.4309 10.4308 10 10.4308C9.56915 10.4308 9.15585 10.2601 8.85058 9.95605L4.7025 5.80742C4.82283 5.50623 5.03054 5.24793 5.2989 5.06578C5.56726 4.88362 5.88399 4.78594 6.20833 4.7853ZM13.7917 14.5353H6.20833C5.77736 14.5353 5.36403 14.3641 5.05928 14.0594C4.75454 13.7546 4.58333 13.3413 4.58333 12.9103V7.2228L8.08467 10.722C8.59309 11.2291 9.28189 11.5139 10 11.5139C10.7181 11.5139 11.4069 11.2291 11.9153 10.722L15.4167 7.2228V12.9103C15.4167 13.3413 15.2455 13.7546 14.9407 14.0594C14.636 14.3641 14.2226 14.5353 13.7917 14.5353Z" fill="white"/>
<rect x="1" y="1.20197" width="18" height="16.9167" rx="8.45834" stroke="black"/>
</svg>
