<svg width="50" height="50" viewBox="0 0 50 50" fill="none" xmlns="http://www.w3.org/2000/svg">
<path d="M50 25C50 38.8071 38.8071 50 25 50C19.7337 50 14.8477 48.3716 10.818 45.5909L2.27273 47.7273L4.512 39.33C1.66859 35.2722 0 30.331 0 25C0 11.1929 11.1929 0 25 0C38.8071 0 50 11.1929 50 25Z" fill="black"/>
<path d="M38 24.8097C38 30.7798 32.4036 35.6195 25.5 35.6195C23.5467 35.6195 21.6981 35.2321 20.0513 34.5412C19.1273 34.1536 12 39.5 12 39.5C12 39.5 16.0793 31.9636 15.4991 31.2956C13.9299 29.4889 13 27.2433 13 24.8097C13 18.8397 18.5964 14 25.5 14C32.4036 14 38 18.8397 38 24.8097Z" fill="white"/>
</svg>
