<svg width="99" height="73" viewBox="0 0 99 73" fill="none" xmlns="http://www.w3.org/2000/svg">
<rect width="99" height="73" rx="36.5" fill="white"/>
<rect x="10.5" y="16.5" width="39.2822" height="41.5887" rx="19.6411" fill="#EE6723"/>
<path d="M20.8384 30.666V38.519C20.8384 39.3043 21.0316 39.9088 21.418 40.3326C21.8044 40.7564 22.3716 40.9683 23.1195 40.9683C23.8674 40.9683 24.4408 40.7564 24.8396 40.3326C25.2385 39.9088 25.438 39.3043 25.438 38.519V30.666H28.6352V38.5003C28.6352 39.672 28.3859 40.6629 27.8873 41.4732C27.3887 42.2834 26.7156 42.8942 25.868 43.3055C25.0329 43.7169 24.098 43.9225 23.0634 43.9225C22.0288 43.9225 21.1001 43.7231 20.2775 43.3242C19.4672 42.9129 18.8253 42.3021 18.3516 41.4919C17.8779 40.6692 17.6411 39.672 17.6411 38.5003V30.666H20.8384Z" fill="white"/>
<path d="M38.9203 43.7917L36.2466 39.7717L33.8907 43.7917H30.2634L34.4703 37.1166L30.1699 30.666H33.8907L36.527 34.6299L38.8455 30.666H42.4728L38.3033 37.2849L42.6411 43.7917H38.9203Z" fill="white"/>
<rect x="10.5" y="16.5" width="39.2822" height="41.5887" rx="19.6411" stroke="black" stroke-dasharray="10 10 100 8"/>
<rect x="45.9114" y="16.5" width="41.5887" height="41.5887" rx="20.7944" fill="#1400FF" fill-opacity="0.36"/>
<path d="M61.2072 30.0356V38.6356C61.2072 39.4956 61.4188 40.1576 61.842 40.6217C62.2651 41.0859 62.8862 41.3179 63.7053 41.3179C64.5243 41.3179 65.1522 41.0859 65.5891 40.6217C66.0259 40.1576 66.2443 39.4956 66.2443 38.6356V30.0356H69.7457V38.6151C69.7457 39.8983 69.4727 40.9835 68.9267 41.8708C68.3806 42.7581 67.6435 43.4269 66.7152 43.8774C65.8007 44.3279 64.7769 44.5531 63.6438 44.5531C62.5108 44.5531 61.4939 44.3347 60.5929 43.8979C59.7056 43.4474 59.0026 42.7785 58.4839 41.8912C57.9652 40.9903 57.7058 39.8983 57.7058 38.6151V30.0356H61.2072Z" fill="white"/>
<path d="M75.7058 30.0356V44.4098H72.2044V30.0356H75.7058Z" fill="white"/>
<rect x="45.9114" y="16.5" width="41.5887" height="41.5887" rx="20.7944" stroke="black" stroke-dasharray="10 10 100 8"/>
</svg>
