<svg width="247" height="280" viewBox="0 0 247 280" fill="none" xmlns="http://www.w3.org/2000/svg">
<rect width="247" height="280" fill="#E8FFE9"/>
<rect x="42.5" y="96.5" width="88" height="88" rx="44" fill="#EE6723"/>
<path d="M63.4619 123.804V143.964C63.4619 145.98 63.9579 147.532 64.9499 148.62C65.9419 149.708 67.3979 150.252 69.3179 150.252C71.2379 150.252 72.7099 149.708 73.7339 148.62C74.7579 147.532 75.2699 145.98 75.2699 143.964V123.804H83.4779V143.916C83.4779 146.924 82.8379 149.468 81.5579 151.548C80.2779 153.628 78.5499 155.196 76.3739 156.252C74.2299 157.308 71.8299 157.836 69.1739 157.836C66.5179 157.836 64.1339 157.324 62.0219 156.3C59.9419 155.244 58.2939 153.676 57.0779 151.596C55.8619 149.484 55.2539 146.924 55.2539 143.916V123.804H63.4619ZM109.882 157.5L103.018 147.18L96.9696 157.5H87.6576L98.4576 140.364L87.4176 123.804H96.9696L103.738 133.98L109.69 123.804H119.002L108.298 140.796L119.434 157.5H109.882Z" fill="white"/>
<rect x="42.5" y="96.5" width="88" height="88" rx="44" stroke="black" stroke-dasharray="10 10 100 8"/>
<rect x="116.5" y="96.5" width="88" height="88" rx="44" fill="#1400FF" fill-opacity="0.36"/>
<path d="M147.54 123.804V143.964C147.54 145.98 148.036 147.532 149.028 148.62C150.02 149.708 151.476 150.252 153.396 150.252C155.316 150.252 156.788 149.708 157.812 148.62C158.836 147.532 159.348 145.98 159.348 143.964V123.804H167.556V143.916C167.556 146.924 166.916 149.468 165.636 151.548C164.356 153.628 162.628 155.196 160.452 156.252C158.308 157.308 155.908 157.836 153.252 157.836C150.596 157.836 148.212 157.324 146.1 156.3C144.02 155.244 142.372 153.676 141.156 151.596C139.94 149.484 139.332 146.924 139.332 143.916V123.804H147.54ZM181.528 123.804V157.5H173.32V123.804H181.528Z" fill="white"/>
<rect x="116.5" y="96.5" width="88" height="88" rx="44" stroke="black" stroke-dasharray="10 10 100 8"/>
</svg>
