<svg width="247" height="280" viewBox="0 0 247 280" fill="none" xmlns="http://www.w3.org/2000/svg">
<rect width="247" height="280" fill="#5C5C5C"/>
<path d="M14.448 154.36C20.336 149.944 24.88 145.992 28.08 142.504C31.312 138.984 32.928 135.544 32.928 132.184C32.928 129.976 32.368 128.216 31.248 126.904C30.16 125.56 28.368 124.888 25.872 124.888C23.44 124.888 21.552 125.656 20.208 127.192C18.896 128.696 18.16 130.712 18 133.24H14.736C14.928 129.688 16.016 126.936 18 124.984C20.016 123 22.64 122.008 25.872 122.008C28.976 122.008 31.488 122.888 33.408 124.648C35.328 126.376 36.288 128.84 36.288 132.04C36.288 135.912 34.672 139.672 31.44 143.32C28.24 146.936 24.288 150.472 19.584 153.928H37.344V156.76H14.448V154.36ZM41.1008 148.84V146.296L58.5728 122.776H62.5568V145.912H67.6927V148.84H62.5568V157H59.2448V148.84H41.1008ZM59.3888 126.472L44.9888 145.912H59.3888V126.472ZM91.8023 130.984C91.0983 126.824 88.6823 124.744 84.5543 124.744C81.4183 124.744 79.0663 125.96 77.4983 128.392C75.9303 130.824 75.2103 134.808 75.3383 140.344C75.9783 138.424 77.1943 136.92 78.9863 135.832C80.8103 134.712 82.8903 134.152 85.2263 134.152C88.5863 134.152 91.2423 135.192 93.1943 137.272C95.1783 139.32 96.1703 142.152 96.1703 145.768C96.1703 147.88 95.7543 149.8 94.9223 151.528C94.1223 153.224 92.8743 154.584 91.1783 155.608C89.5143 156.632 87.4343 157.144 84.9383 157.144C80.1703 157.144 76.8743 155.624 75.0503 152.584C73.2583 149.544 72.3623 145.24 72.3623 139.672C72.3623 127.832 76.4263 121.912 84.5543 121.912C87.6263 121.912 90.0423 122.76 91.8023 124.456C93.5623 126.12 94.6023 128.296 94.9223 130.984H91.8023ZM84.6023 137.032C83.0983 137.032 81.6743 137.336 80.3303 137.944C78.9863 138.552 77.8823 139.48 77.0183 140.728C76.1863 141.944 75.7703 143.448 75.7703 145.24C75.7703 147.832 76.5383 149.992 78.0743 151.72C79.6103 153.448 81.8503 154.312 84.7943 154.312C87.2583 154.312 89.2263 153.56 90.6983 152.056C92.1703 150.552 92.9062 148.504 92.9062 145.912C92.9062 143.128 92.1863 140.952 90.7463 139.384C89.3063 137.816 87.2583 137.032 84.6023 137.032ZM129.834 157L123.066 146.44L116.538 157H112.986L121.434 143.896L113.082 130.792H116.874L123.546 141.208L130.026 130.792H133.53L125.178 143.752L133.626 157H129.834ZM149.964 154.36C155.852 149.944 160.396 145.992 163.596 142.504C166.828 138.984 168.444 135.544 168.444 132.184C168.444 129.976 167.884 128.216 166.764 126.904C165.676 125.56 163.884 124.888 161.388 124.888C158.956 124.888 157.068 125.656 155.724 127.192C154.412 128.696 153.676 130.712 153.516 133.24H150.252C150.444 129.688 151.532 126.936 153.516 124.984C155.532 123 158.156 122.008 161.388 122.008C164.492 122.008 167.004 122.888 168.924 124.648C170.844 126.376 171.804 128.84 171.804 132.04C171.804 135.912 170.188 139.672 166.956 143.32C163.756 146.936 159.804 150.472 155.1 153.928H172.86V156.76H149.964V154.36ZM184.776 139.144C182.792 138.504 181.272 137.496 180.216 136.12C179.192 134.744 178.68 133.08 178.68 131.128C178.68 129.4 179.112 127.864 179.976 126.52C180.872 125.144 182.168 124.072 183.864 123.304C185.56 122.504 187.592 122.104 189.96 122.104C192.328 122.104 194.36 122.504 196.056 123.304C197.752 124.072 199.032 125.144 199.896 126.52C200.792 127.864 201.24 129.4 201.24 131.128C201.24 133.048 200.712 134.712 199.656 136.12C198.632 137.528 197.128 138.536 195.144 139.144C197.32 139.688 199.032 140.728 200.28 142.264C201.528 143.8 202.152 145.672 202.152 147.88C202.152 149.928 201.64 151.72 200.616 153.256C199.624 154.76 198.2 155.928 196.344 156.76C194.52 157.592 192.392 158.008 189.96 158.008C187.528 158.008 185.384 157.592 183.528 156.76C181.704 155.928 180.28 154.76 179.256 153.256C178.264 151.72 177.768 149.928 177.768 147.88C177.768 145.672 178.392 143.8 179.64 142.264C180.888 140.728 182.6 139.688 184.776 139.144ZM197.976 131.512C197.976 129.4 197.256 127.768 195.816 126.616C194.376 125.464 192.424 124.888 189.96 124.888C187.496 124.888 185.544 125.464 184.104 126.616C182.664 127.736 181.944 129.368 181.944 131.512C181.944 133.496 182.68 135.08 184.152 136.264C185.624 137.448 187.56 138.04 189.96 138.04C192.36 138.04 194.296 137.448 195.768 136.264C197.24 135.08 197.976 133.496 197.976 131.512ZM189.96 140.632C187.336 140.632 185.192 141.224 183.528 142.408C181.864 143.592 181.032 145.384 181.032 147.784C181.032 150.088 181.832 151.896 183.432 153.208C185.032 154.52 187.208 155.176 189.96 155.176C192.68 155.176 194.84 154.52 196.44 153.208C198.04 151.864 198.84 150.056 198.84 147.784C198.84 145.416 198.008 143.64 196.344 142.456C194.712 141.24 192.584 140.632 189.96 140.632ZM208.058 139.48C208.058 133.976 208.906 129.704 210.602 126.664C212.298 123.624 215.338 122.104 219.722 122.104C224.106 122.104 227.146 123.624 228.842 126.664C230.538 129.704 231.385 133.976 231.385 139.48C231.385 145.08 230.538 149.416 228.842 152.488C227.146 155.56 224.106 157.096 219.722 157.096C215.306 157.096 212.25 155.56 210.554 152.488C208.89 149.416 208.058 145.08 208.058 139.48ZM228.074 139.48C228.074 136.504 227.866 133.992 227.45 131.944C227.034 129.896 226.218 128.248 225.002 127C223.786 125.752 222.026 125.128 219.722 125.128C217.418 125.128 215.658 125.752 214.442 127C213.226 128.248 212.41 129.896 211.993 131.944C211.578 133.992 211.37 136.504 211.37 139.48C211.37 142.552 211.578 145.128 211.993 147.208C212.41 149.256 213.226 150.904 214.442 152.152C215.658 153.4 217.418 154.024 219.722 154.024C222.026 154.024 223.786 153.4 225.002 152.152C226.218 150.904 227.034 149.256 227.45 147.208C227.866 145.128 228.074 142.552 228.074 139.48Z" fill="white"/>
</svg>
