<svg width="321" height="226" viewBox="0 0 321 226" fill="none" xmlns="http://www.w3.org/2000/svg">
<circle cx="198.5" cy="48.5" r="6.5" fill="white"/>
<path d="M209 66.5C209 72.299 204.299 69 198.5 69C192.701 69 188 72.299 188 66.5C188 60.701 192.701 56 198.5 56C204.299 56 209 60.701 209 66.5Z" fill="white"/>
<path d="M193.97 31.24C193.97 31.6467 193.877 32.02 193.69 32.36C193.503 32.6933 193.217 32.9633 192.83 33.17C192.443 33.3767 191.963 33.48 191.39 33.48H190.33V36H188.62V28.98H191.39C191.95 28.98 192.423 29.0767 192.81 29.27C193.197 29.4633 193.487 29.73 193.68 30.07C193.873 30.41 193.97 30.8 193.97 31.24ZM191.26 32.12C191.587 32.12 191.83 32.0433 191.99 31.89C192.15 31.7367 192.23 31.52 192.23 31.24C192.23 30.96 192.15 30.7433 191.99 30.59C191.83 30.4367 191.587 30.36 191.26 30.36H190.33V32.12H191.26ZM196.57 31.35C196.77 31.0433 197.02 30.8033 197.32 30.63C197.62 30.45 197.954 30.36 198.32 30.36V32.17H197.85C197.424 32.17 197.104 32.2633 196.89 32.45C196.677 32.63 196.57 32.95 196.57 33.41V36H194.86V30.42H196.57V31.35ZM201.678 36.08C201.131 36.08 200.638 35.9633 200.198 35.73C199.764 35.4967 199.421 35.1633 199.168 34.73C198.921 34.2967 198.798 33.79 198.798 33.21C198.798 32.6367 198.924 32.1333 199.178 31.7C199.431 31.26 199.778 30.9233 200.218 30.69C200.658 30.4567 201.151 30.34 201.698 30.34C202.244 30.34 202.738 30.4567 203.178 30.69C203.618 30.9233 203.964 31.26 204.218 31.7C204.471 32.1333 204.598 32.6367 204.598 33.21C204.598 33.7833 204.468 34.29 204.208 34.73C203.954 35.1633 203.604 35.4967 203.158 35.73C202.718 35.9633 202.224 36.08 201.678 36.08ZM201.678 34.6C202.004 34.6 202.281 34.48 202.508 34.24C202.741 34 202.858 33.6567 202.858 33.21C202.858 32.7633 202.744 32.42 202.518 32.18C202.298 31.94 202.024 31.82 201.698 31.82C201.364 31.82 201.088 31.94 200.868 32.18C200.648 32.4133 200.538 32.7567 200.538 33.21C200.538 33.6567 200.644 34 200.858 34.24C201.078 34.48 201.351 34.6 201.678 34.6ZM208.615 34.55V36H207.745C207.125 36 206.641 35.85 206.295 35.55C205.948 35.2433 205.775 34.7467 205.775 34.06V31.84H205.095V30.42H205.775V29.06H207.485V30.42H208.605V31.84H207.485V34.08C207.485 34.2467 207.525 34.3667 207.605 34.44C207.685 34.5133 207.818 34.55 208.005 34.55H208.615ZM212.107 36.08C211.561 36.08 211.067 35.9633 210.627 35.73C210.194 35.4967 209.851 35.1633 209.597 34.73C209.351 34.2967 209.227 33.79 209.227 33.21C209.227 32.6367 209.354 32.1333 209.607 31.7C209.861 31.26 210.207 30.9233 210.647 30.69C211.087 30.4567 211.581 30.34 212.127 30.34C212.674 30.34 213.167 30.4567 213.607 30.69C214.047 30.9233 214.394 31.26 214.647 31.7C214.901 32.1333 215.027 32.6367 215.027 33.21C215.027 33.7833 214.897 34.29 214.637 34.73C214.384 35.1633 214.034 35.4967 213.587 35.73C213.147 35.9633 212.654 36.08 212.107 36.08ZM212.107 34.6C212.434 34.6 212.711 34.48 212.937 34.24C213.171 34 213.287 33.6567 213.287 33.21C213.287 32.7633 213.174 32.42 212.947 32.18C212.727 31.94 212.454 31.82 212.127 31.82C211.794 31.82 211.517 31.94 211.297 32.18C211.077 32.4133 210.967 32.7567 210.967 33.21C210.967 33.6567 211.074 34 211.287 34.24C211.507 34.48 211.781 34.6 212.107 34.6ZM221.444 30.42V36H219.734V35.24C219.561 35.4867 219.324 35.6867 219.024 35.84C218.731 35.9867 218.404 36.06 218.044 36.06C217.618 36.06 217.241 35.9667 216.914 35.78C216.588 35.5867 216.334 35.31 216.154 34.95C215.974 34.59 215.884 34.1667 215.884 33.68V30.42H217.584V33.45C217.584 33.8233 217.681 34.1133 217.874 34.32C218.068 34.5267 218.328 34.63 218.654 34.63C218.988 34.63 219.251 34.5267 219.444 34.32C219.638 34.1133 219.734 33.8233 219.734 33.45V30.42H221.444ZM224.943 36.08C224.456 36.08 224.023 35.9967 223.643 35.83C223.263 35.6633 222.963 35.4367 222.743 35.15C222.523 34.8567 222.399 34.53 222.373 34.17H224.063C224.083 34.3633 224.173 34.52 224.333 34.64C224.493 34.76 224.689 34.82 224.923 34.82C225.136 34.82 225.299 34.78 225.413 34.7C225.533 34.6133 225.593 34.5033 225.593 34.37C225.593 34.21 225.509 34.0933 225.343 34.02C225.176 33.94 224.906 33.8533 224.533 33.76C224.133 33.6667 223.799 33.57 223.533 33.47C223.266 33.3633 223.036 33.2 222.843 32.98C222.649 32.7533 222.553 32.45 222.553 32.07C222.553 31.75 222.639 31.46 222.813 31.2C222.993 30.9333 223.253 30.7233 223.593 30.57C223.939 30.4167 224.349 30.34 224.823 30.34C225.523 30.34 226.073 30.5133 226.473 30.86C226.879 31.2067 227.113 31.6667 227.173 32.24H225.593C225.566 32.0467 225.479 31.8933 225.333 31.78C225.193 31.6667 225.006 31.61 224.773 31.61C224.573 31.61 224.419 31.65 224.313 31.73C224.206 31.8033 224.153 31.9067 224.153 32.04C224.153 32.2 224.236 32.32 224.403 32.4C224.576 32.48 224.843 32.56 225.203 32.64C225.616 32.7467 225.953 32.8533 226.213 32.96C226.473 33.06 226.699 33.2267 226.893 33.46C227.093 33.6867 227.196 33.9933 227.203 34.38C227.203 34.7067 227.109 35 226.923 35.26C226.743 35.5133 226.479 35.7133 226.133 35.86C225.793 36.0067 225.396 36.08 224.943 36.08ZM233.759 30.42V36H232.049V35.24C231.876 35.4867 231.639 35.6867 231.339 35.84C231.046 35.9867 230.719 36.06 230.359 36.06C229.932 36.06 229.556 35.9667 229.229 35.78C228.902 35.5867 228.649 35.31 228.469 34.95C228.289 34.59 228.199 34.1667 228.199 33.68V30.42H229.899V33.45C229.899 33.8233 229.996 34.1133 230.189 34.32C230.382 34.5267 230.642 34.63 230.969 34.63C231.302 34.63 231.566 34.5267 231.759 34.32C231.952 34.1133 232.049 33.8233 232.049 33.45V30.42H233.759ZM234.647 33.2C234.647 32.6267 234.754 32.1233 234.967 31.69C235.187 31.2567 235.484 30.9233 235.857 30.69C236.231 30.4567 236.647 30.34 237.107 30.34C237.501 30.34 237.844 30.42 238.137 30.58C238.437 30.74 238.667 30.95 238.827 31.21V30.42H240.537V36H238.827V35.21C238.661 35.47 238.427 35.68 238.127 35.84C237.834 36 237.491 36.08 237.097 36.08C236.644 36.08 236.231 35.9633 235.857 35.73C235.484 35.49 235.187 35.1533 234.967 34.72C234.754 34.28 234.647 33.7733 234.647 33.2ZM238.827 33.21C238.827 32.7833 238.707 32.4467 238.467 32.2C238.234 31.9533 237.947 31.83 237.607 31.83C237.267 31.83 236.977 31.9533 236.737 32.2C236.504 32.44 236.387 32.7733 236.387 33.2C236.387 33.6267 236.504 33.9667 236.737 34.22C236.977 34.4667 237.267 34.59 237.607 34.59C237.947 34.59 238.234 34.4667 238.467 34.22C238.707 33.9733 238.827 33.6367 238.827 33.21ZM243.484 31.35C243.684 31.0433 243.934 30.8033 244.234 30.63C244.534 30.45 244.868 30.36 245.234 30.36V32.17H244.764C244.338 32.17 244.018 32.2633 243.804 32.45C243.591 32.63 243.484 32.95 243.484 33.41V36H241.774V30.42H243.484V31.35ZM246.912 29.84C246.612 29.84 246.365 29.7533 246.172 29.58C245.985 29.4 245.892 29.18 245.892 28.92C245.892 28.6533 245.985 28.4333 246.172 28.26C246.365 28.08 246.612 27.99 246.912 27.99C247.205 27.99 247.445 28.08 247.632 28.26C247.825 28.4333 247.922 28.6533 247.922 28.92C247.922 29.18 247.825 29.4 247.632 29.58C247.445 29.7533 247.205 29.84 246.912 29.84ZM247.762 30.42V36H246.052V30.42H247.762ZM251.541 36.08C250.994 36.08 250.501 35.9633 250.061 35.73C249.628 35.4967 249.284 35.1633 249.031 34.73C248.784 34.2967 248.661 33.79 248.661 33.21C248.661 32.6367 248.788 32.1333 249.041 31.7C249.294 31.26 249.641 30.9233 250.081 30.69C250.521 30.4567 251.014 30.34 251.561 30.34C252.108 30.34 252.601 30.4567 253.041 30.69C253.481 30.9233 253.828 31.26 254.081 31.7C254.334 32.1333 254.461 32.6367 254.461 33.21C254.461 33.7833 254.331 34.29 254.071 34.73C253.818 35.1633 253.468 35.4967 253.021 35.73C252.581 35.9633 252.088 36.08 251.541 36.08ZM251.541 34.6C251.868 34.6 252.144 34.48 252.371 34.24C252.604 34 252.721 33.6567 252.721 33.21C252.721 32.7633 252.608 32.42 252.381 32.18C252.161 31.94 251.888 31.82 251.561 31.82C251.228 31.82 250.951 31.94 250.731 32.18C250.511 32.4133 250.401 32.7567 250.401 33.21C250.401 33.6567 250.508 34 250.721 34.24C250.941 34.48 251.214 34.6 251.541 34.6Z" fill="white"/>
<rect x="217" y="42" width="24" height="3" fill="white"/>
<rect x="217" y="47" width="11" height="3" fill="white"/>
<rect x="217" y="52" width="38" height="18" fill="white"/>
<circle cx="198.5" cy="104.5" r="6.5" fill="white"/>
<path d="M209 122.5C209 128.299 204.299 125 198.5 125C192.701 125 188 128.299 188 122.5C188 116.701 192.701 112 198.5 112C204.299 112 209 116.701 209 122.5Z" fill="white"/>
<path d="M193.97 87.24C193.97 87.6467 193.877 88.02 193.69 88.36C193.503 88.6933 193.217 88.9633 192.83 89.17C192.443 89.3767 191.963 89.48 191.39 89.48H190.33V92H188.62V84.98H191.39C191.95 84.98 192.423 85.0767 192.81 85.27C193.197 85.4633 193.487 85.73 193.68 86.07C193.873 86.41 193.97 86.8 193.97 87.24ZM191.26 88.12C191.587 88.12 191.83 88.0433 191.99 87.89C192.15 87.7367 192.23 87.52 192.23 87.24C192.23 86.96 192.15 86.7433 191.99 86.59C191.83 86.4367 191.587 86.36 191.26 86.36H190.33V88.12H191.26ZM196.57 87.35C196.77 87.0433 197.02 86.8033 197.32 86.63C197.62 86.45 197.954 86.36 198.32 86.36V88.17H197.85C197.424 88.17 197.104 88.2633 196.89 88.45C196.677 88.63 196.57 88.95 196.57 89.41V92H194.86V86.42H196.57V87.35ZM201.678 92.08C201.131 92.08 200.638 91.9633 200.198 91.73C199.764 91.4967 199.421 91.1633 199.168 90.73C198.921 90.2967 198.798 89.79 198.798 89.21C198.798 88.6367 198.924 88.1333 199.178 87.7C199.431 87.26 199.778 86.9233 200.218 86.69C200.658 86.4567 201.151 86.34 201.698 86.34C202.244 86.34 202.738 86.4567 203.178 86.69C203.618 86.9233 203.964 87.26 204.218 87.7C204.471 88.1333 204.598 88.6367 204.598 89.21C204.598 89.7833 204.468 90.29 204.208 90.73C203.954 91.1633 203.604 91.4967 203.158 91.73C202.718 91.9633 202.224 92.08 201.678 92.08ZM201.678 90.6C202.004 90.6 202.281 90.48 202.508 90.24C202.741 90 202.858 89.6567 202.858 89.21C202.858 88.7633 202.744 88.42 202.518 88.18C202.298 87.94 202.024 87.82 201.698 87.82C201.364 87.82 201.088 87.94 200.868 88.18C200.648 88.4133 200.538 88.7567 200.538 89.21C200.538 89.6567 200.644 90 200.858 90.24C201.078 90.48 201.351 90.6 201.678 90.6ZM208.615 90.55V92H207.745C207.125 92 206.641 91.85 206.295 91.55C205.948 91.2433 205.775 90.7467 205.775 90.06V87.84H205.095V86.42H205.775V85.06H207.485V86.42H208.605V87.84H207.485V90.08C207.485 90.2467 207.525 90.3667 207.605 90.44C207.685 90.5133 207.818 90.55 208.005 90.55H208.615ZM212.107 92.08C211.561 92.08 211.067 91.9633 210.627 91.73C210.194 91.4967 209.851 91.1633 209.597 90.73C209.351 90.2967 209.227 89.79 209.227 89.21C209.227 88.6367 209.354 88.1333 209.607 87.7C209.861 87.26 210.207 86.9233 210.647 86.69C211.087 86.4567 211.581 86.34 212.127 86.34C212.674 86.34 213.167 86.4567 213.607 86.69C214.047 86.9233 214.394 87.26 214.647 87.7C214.901 88.1333 215.027 88.6367 215.027 89.21C215.027 89.7833 214.897 90.29 214.637 90.73C214.384 91.1633 214.034 91.4967 213.587 91.73C213.147 91.9633 212.654 92.08 212.107 92.08ZM212.107 90.6C212.434 90.6 212.711 90.48 212.937 90.24C213.171 90 213.287 89.6567 213.287 89.21C213.287 88.7633 213.174 88.42 212.947 88.18C212.727 87.94 212.454 87.82 212.127 87.82C211.794 87.82 211.517 87.94 211.297 88.18C211.077 88.4133 210.967 88.7567 210.967 89.21C210.967 89.6567 211.074 90 211.287 90.24C211.507 90.48 211.781 90.6 212.107 90.6ZM221.444 86.42V92H219.734V91.24C219.561 91.4867 219.324 91.6867 219.024 91.84C218.731 91.9867 218.404 92.06 218.044 92.06C217.618 92.06 217.241 91.9667 216.914 91.78C216.588 91.5867 216.334 91.31 216.154 90.95C215.974 90.59 215.884 90.1667 215.884 89.68V86.42H217.584V89.45C217.584 89.8233 217.681 90.1133 217.874 90.32C218.068 90.5267 218.328 90.63 218.654 90.63C218.988 90.63 219.251 90.5267 219.444 90.32C219.638 90.1133 219.734 89.8233 219.734 89.45V86.42H221.444ZM224.943 92.08C224.456 92.08 224.023 91.9967 223.643 91.83C223.263 91.6633 222.963 91.4367 222.743 91.15C222.523 90.8567 222.399 90.53 222.373 90.17H224.063C224.083 90.3633 224.173 90.52 224.333 90.64C224.493 90.76 224.689 90.82 224.923 90.82C225.136 90.82 225.299 90.78 225.413 90.7C225.533 90.6133 225.593 90.5033 225.593 90.37C225.593 90.21 225.509 90.0933 225.343 90.02C225.176 89.94 224.906 89.8533 224.533 89.76C224.133 89.6667 223.799 89.57 223.533 89.47C223.266 89.3633 223.036 89.2 222.843 88.98C222.649 88.7533 222.553 88.45 222.553 88.07C222.553 87.75 222.639 87.46 222.813 87.2C222.993 86.9333 223.253 86.7233 223.593 86.57C223.939 86.4167 224.349 86.34 224.823 86.34C225.523 86.34 226.073 86.5133 226.473 86.86C226.879 87.2067 227.113 87.6667 227.173 88.24H225.593C225.566 88.0467 225.479 87.8933 225.333 87.78C225.193 87.6667 225.006 87.61 224.773 87.61C224.573 87.61 224.419 87.65 224.313 87.73C224.206 87.8033 224.153 87.9067 224.153 88.04C224.153 88.2 224.236 88.32 224.403 88.4C224.576 88.48 224.843 88.56 225.203 88.64C225.616 88.7467 225.953 88.8533 226.213 88.96C226.473 89.06 226.699 89.2267 226.893 89.46C227.093 89.6867 227.196 89.9933 227.203 90.38C227.203 90.7067 227.109 91 226.923 91.26C226.743 91.5133 226.479 91.7133 226.133 91.86C225.793 92.0067 225.396 92.08 224.943 92.08ZM233.759 86.42V92H232.049V91.24C231.876 91.4867 231.639 91.6867 231.339 91.84C231.046 91.9867 230.719 92.06 230.359 92.06C229.932 92.06 229.556 91.9667 229.229 91.78C228.902 91.5867 228.649 91.31 228.469 90.95C228.289 90.59 228.199 90.1667 228.199 89.68V86.42H229.899V89.45C229.899 89.8233 229.996 90.1133 230.189 90.32C230.382 90.5267 230.642 90.63 230.969 90.63C231.302 90.63 231.566 90.5267 231.759 90.32C231.952 90.1133 232.049 89.8233 232.049 89.45V86.42H233.759ZM234.647 89.2C234.647 88.6267 234.754 88.1233 234.967 87.69C235.187 87.2567 235.484 86.9233 235.857 86.69C236.231 86.4567 236.647 86.34 237.107 86.34C237.501 86.34 237.844 86.42 238.137 86.58C238.437 86.74 238.667 86.95 238.827 87.21V86.42H240.537V92H238.827V91.21C238.661 91.47 238.427 91.68 238.127 91.84C237.834 92 237.491 92.08 237.097 92.08C236.644 92.08 236.231 91.9633 235.857 91.73C235.484 91.49 235.187 91.1533 234.967 90.72C234.754 90.28 234.647 89.7733 234.647 89.2ZM238.827 89.21C238.827 88.7833 238.707 88.4467 238.467 88.2C238.234 87.9533 237.947 87.83 237.607 87.83C237.267 87.83 236.977 87.9533 236.737 88.2C236.504 88.44 236.387 88.7733 236.387 89.2C236.387 89.6267 236.504 89.9667 236.737 90.22C236.977 90.4667 237.267 90.59 237.607 90.59C237.947 90.59 238.234 90.4667 238.467 90.22C238.707 89.9733 238.827 89.6367 238.827 89.21ZM243.484 87.35C243.684 87.0433 243.934 86.8033 244.234 86.63C244.534 86.45 244.868 86.36 245.234 86.36V88.17H244.764C244.338 88.17 244.018 88.2633 243.804 88.45C243.591 88.63 243.484 88.95 243.484 89.41V92H241.774V86.42H243.484V87.35ZM246.912 85.84C246.612 85.84 246.365 85.7533 246.172 85.58C245.985 85.4 245.892 85.18 245.892 84.92C245.892 84.6533 245.985 84.4333 246.172 84.26C246.365 84.08 246.612 83.99 246.912 83.99C247.205 83.99 247.445 84.08 247.632 84.26C247.825 84.4333 247.922 84.6533 247.922 84.92C247.922 85.18 247.825 85.4 247.632 85.58C247.445 85.7533 247.205 85.84 246.912 85.84ZM247.762 86.42V92H246.052V86.42H247.762ZM251.541 92.08C250.994 92.08 250.501 91.9633 250.061 91.73C249.628 91.4967 249.284 91.1633 249.031 90.73C248.784 90.2967 248.661 89.79 248.661 89.21C248.661 88.6367 248.788 88.1333 249.041 87.7C249.294 87.26 249.641 86.9233 250.081 86.69C250.521 86.4567 251.014 86.34 251.561 86.34C252.108 86.34 252.601 86.4567 253.041 86.69C253.481 86.9233 253.828 87.26 254.081 87.7C254.334 88.1333 254.461 88.6367 254.461 89.21C254.461 89.7833 254.331 90.29 254.071 90.73C253.818 91.1633 253.468 91.4967 253.021 91.73C252.581 91.9633 252.088 92.08 251.541 92.08ZM251.541 90.6C251.868 90.6 252.144 90.48 252.371 90.24C252.604 90 252.721 89.6567 252.721 89.21C252.721 88.7633 252.608 88.42 252.381 88.18C252.161 87.94 251.888 87.82 251.561 87.82C251.228 87.82 250.951 87.94 250.731 88.18C250.511 88.4133 250.401 88.7567 250.401 89.21C250.401 89.6567 250.508 90 250.721 90.24C250.941 90.48 251.214 90.6 251.541 90.6Z" fill="white"/>
<rect x="217" y="98" width="24" height="3" fill="white"/>
<rect x="217" y="103" width="11" height="3" fill="white"/>
<rect x="217" y="108" width="38" height="18" fill="white"/>
<circle cx="198.5" cy="160.5" r="6.5" fill="white"/>
<path d="M209 178.5C209 184.299 204.299 181 198.5 181C192.701 181 188 184.299 188 178.5C188 172.701 192.701 168 198.5 168C204.299 168 209 172.701 209 178.5Z" fill="white"/>
<path d="M193.97 143.24C193.97 143.647 193.877 144.02 193.69 144.36C193.503 144.693 193.217 144.963 192.83 145.17C192.443 145.377 191.963 145.48 191.39 145.48H190.33V148H188.62V140.98H191.39C191.95 140.98 192.423 141.077 192.81 141.27C193.197 141.463 193.487 141.73 193.68 142.07C193.873 142.41 193.97 142.8 193.97 143.24ZM191.26 144.12C191.587 144.12 191.83 144.043 191.99 143.89C192.15 143.737 192.23 143.52 192.23 143.24C192.23 142.96 192.15 142.743 191.99 142.59C191.83 142.437 191.587 142.36 191.26 142.36H190.33V144.12H191.26ZM196.57 143.35C196.77 143.043 197.02 142.803 197.32 142.63C197.62 142.45 197.954 142.36 198.32 142.36V144.17H197.85C197.424 144.17 197.104 144.263 196.89 144.45C196.677 144.63 196.57 144.95 196.57 145.41V148H194.86V142.42H196.57V143.35ZM201.678 148.08C201.131 148.08 200.638 147.963 200.198 147.73C199.764 147.497 199.421 147.163 199.168 146.73C198.921 146.297 198.798 145.79 198.798 145.21C198.798 144.637 198.924 144.133 199.178 143.7C199.431 143.26 199.778 142.923 200.218 142.69C200.658 142.457 201.151 142.34 201.698 142.34C202.244 142.34 202.738 142.457 203.178 142.69C203.618 142.923 203.964 143.26 204.218 143.7C204.471 144.133 204.598 144.637 204.598 145.21C204.598 145.783 204.468 146.29 204.208 146.73C203.954 147.163 203.604 147.497 203.158 147.73C202.718 147.963 202.224 148.08 201.678 148.08ZM201.678 146.6C202.004 146.6 202.281 146.48 202.508 146.24C202.741 146 202.858 145.657 202.858 145.21C202.858 144.763 202.744 144.42 202.518 144.18C202.298 143.94 202.024 143.82 201.698 143.82C201.364 143.82 201.088 143.94 200.868 144.18C200.648 144.413 200.538 144.757 200.538 145.21C200.538 145.657 200.644 146 200.858 146.24C201.078 146.48 201.351 146.6 201.678 146.6ZM208.615 146.55V148H207.745C207.125 148 206.641 147.85 206.295 147.55C205.948 147.243 205.775 146.747 205.775 146.06V143.84H205.095V142.42H205.775V141.06H207.485V142.42H208.605V143.84H207.485V146.08C207.485 146.247 207.525 146.367 207.605 146.44C207.685 146.513 207.818 146.55 208.005 146.55H208.615ZM212.107 148.08C211.561 148.08 211.067 147.963 210.627 147.73C210.194 147.497 209.851 147.163 209.597 146.73C209.351 146.297 209.227 145.79 209.227 145.21C209.227 144.637 209.354 144.133 209.607 143.7C209.861 143.26 210.207 142.923 210.647 142.69C211.087 142.457 211.581 142.34 212.127 142.34C212.674 142.34 213.167 142.457 213.607 142.69C214.047 142.923 214.394 143.26 214.647 143.7C214.901 144.133 215.027 144.637 215.027 145.21C215.027 145.783 214.897 146.29 214.637 146.73C214.384 147.163 214.034 147.497 213.587 147.73C213.147 147.963 212.654 148.08 212.107 148.08ZM212.107 146.6C212.434 146.6 212.711 146.48 212.937 146.24C213.171 146 213.287 145.657 213.287 145.21C213.287 144.763 213.174 144.42 212.947 144.18C212.727 143.94 212.454 143.82 212.127 143.82C211.794 143.82 211.517 143.94 211.297 144.18C211.077 144.413 210.967 144.757 210.967 145.21C210.967 145.657 211.074 146 211.287 146.24C211.507 146.48 211.781 146.6 212.107 146.6ZM221.444 142.42V148H219.734V147.24C219.561 147.487 219.324 147.687 219.024 147.84C218.731 147.987 218.404 148.06 218.044 148.06C217.618 148.06 217.241 147.967 216.914 147.78C216.588 147.587 216.334 147.31 216.154 146.95C215.974 146.59 215.884 146.167 215.884 145.68V142.42H217.584V145.45C217.584 145.823 217.681 146.113 217.874 146.32C218.068 146.527 218.328 146.63 218.654 146.63C218.988 146.63 219.251 146.527 219.444 146.32C219.638 146.113 219.734 145.823 219.734 145.45V142.42H221.444ZM224.943 148.08C224.456 148.08 224.023 147.997 223.643 147.83C223.263 147.663 222.963 147.437 222.743 147.15C222.523 146.857 222.399 146.53 222.373 146.17H224.063C224.083 146.363 224.173 146.52 224.333 146.64C224.493 146.76 224.689 146.82 224.923 146.82C225.136 146.82 225.299 146.78 225.413 146.7C225.533 146.613 225.593 146.503 225.593 146.37C225.593 146.21 225.509 146.093 225.343 146.02C225.176 145.94 224.906 145.853 224.533 145.76C224.133 145.667 223.799 145.57 223.533 145.47C223.266 145.363 223.036 145.2 222.843 144.98C222.649 144.753 222.553 144.45 222.553 144.07C222.553 143.75 222.639 143.46 222.813 143.2C222.993 142.933 223.253 142.723 223.593 142.57C223.939 142.417 224.349 142.34 224.823 142.34C225.523 142.34 226.073 142.513 226.473 142.86C226.879 143.207 227.113 143.667 227.173 144.24H225.593C225.566 144.047 225.479 143.893 225.333 143.78C225.193 143.667 225.006 143.61 224.773 143.61C224.573 143.61 224.419 143.65 224.313 143.73C224.206 143.803 224.153 143.907 224.153 144.04C224.153 144.2 224.236 144.32 224.403 144.4C224.576 144.48 224.843 144.56 225.203 144.64C225.616 144.747 225.953 144.853 226.213 144.96C226.473 145.06 226.699 145.227 226.893 145.46C227.093 145.687 227.196 145.993 227.203 146.38C227.203 146.707 227.109 147 226.923 147.26C226.743 147.513 226.479 147.713 226.133 147.86C225.793 148.007 225.396 148.08 224.943 148.08ZM233.759 142.42V148H232.049V147.24C231.876 147.487 231.639 147.687 231.339 147.84C231.046 147.987 230.719 148.06 230.359 148.06C229.932 148.06 229.556 147.967 229.229 147.78C228.902 147.587 228.649 147.31 228.469 146.95C228.289 146.59 228.199 146.167 228.199 145.68V142.42H229.899V145.45C229.899 145.823 229.996 146.113 230.189 146.32C230.382 146.527 230.642 146.63 230.969 146.63C231.302 146.63 231.566 146.527 231.759 146.32C231.952 146.113 232.049 145.823 232.049 145.45V142.42H233.759ZM234.647 145.2C234.647 144.627 234.754 144.123 234.967 143.69C235.187 143.257 235.484 142.923 235.857 142.69C236.231 142.457 236.647 142.34 237.107 142.34C237.501 142.34 237.844 142.42 238.137 142.58C238.437 142.74 238.667 142.95 238.827 143.21V142.42H240.537V148H238.827V147.21C238.661 147.47 238.427 147.68 238.127 147.84C237.834 148 237.491 148.08 237.097 148.08C236.644 148.08 236.231 147.963 235.857 147.73C235.484 147.49 235.187 147.153 234.967 146.72C234.754 146.28 234.647 145.773 234.647 145.2ZM238.827 145.21C238.827 144.783 238.707 144.447 238.467 144.2C238.234 143.953 237.947 143.83 237.607 143.83C237.267 143.83 236.977 143.953 236.737 144.2C236.504 144.44 236.387 144.773 236.387 145.2C236.387 145.627 236.504 145.967 236.737 146.22C236.977 146.467 237.267 146.59 237.607 146.59C237.947 146.59 238.234 146.467 238.467 146.22C238.707 145.973 238.827 145.637 238.827 145.21ZM243.484 143.35C243.684 143.043 243.934 142.803 244.234 142.63C244.534 142.45 244.868 142.36 245.234 142.36V144.17H244.764C244.338 144.17 244.018 144.263 243.804 144.45C243.591 144.63 243.484 144.95 243.484 145.41V148H241.774V142.42H243.484V143.35ZM246.912 141.84C246.612 141.84 246.365 141.753 246.172 141.58C245.985 141.4 245.892 141.18 245.892 140.92C245.892 140.653 245.985 140.433 246.172 140.26C246.365 140.08 246.612 139.99 246.912 139.99C247.205 139.99 247.445 140.08 247.632 140.26C247.825 140.433 247.922 140.653 247.922 140.92C247.922 141.18 247.825 141.4 247.632 141.58C247.445 141.753 247.205 141.84 246.912 141.84ZM247.762 142.42V148H246.052V142.42H247.762ZM251.541 148.08C250.994 148.08 250.501 147.963 250.061 147.73C249.628 147.497 249.284 147.163 249.031 146.73C248.784 146.297 248.661 145.79 248.661 145.21C248.661 144.637 248.788 144.133 249.041 143.7C249.294 143.26 249.641 142.923 250.081 142.69C250.521 142.457 251.014 142.34 251.561 142.34C252.108 142.34 252.601 142.457 253.041 142.69C253.481 142.923 253.828 143.26 254.081 143.7C254.334 144.133 254.461 144.637 254.461 145.21C254.461 145.783 254.331 146.29 254.071 146.73C253.818 147.163 253.468 147.497 253.021 147.73C252.581 147.963 252.088 148.08 251.541 148.08ZM251.541 146.6C251.868 146.6 252.144 146.48 252.371 146.24C252.604 146 252.721 145.657 252.721 145.21C252.721 144.763 252.608 144.42 252.381 144.18C252.161 143.94 251.888 143.82 251.561 143.82C251.228 143.82 250.951 143.94 250.731 144.18C250.511 144.413 250.401 144.757 250.401 145.21C250.401 145.657 250.508 146 250.721 146.24C250.941 146.48 251.214 146.6 251.541 146.6Z" fill="white"/>
<rect x="217" y="154" width="24" height="3" fill="white"/>
<rect x="217" y="159" width="11" height="3" fill="white"/>
<rect x="217" y="164" width="38" height="18" fill="white"/>
<path d="M312 58.5L78.5 192.5" stroke="black" stroke-dasharray="10 10 100 8"/>
<rect x="33.469" y="206.675" width="126.848" height="21.5787" rx="10.7893" transform="rotate(-30.4507 33.469 206.675)" fill="white"/>
<path d="M55.6504 210.211L52.4875 208.434L51.4444 209.047L53.0332 211.75L52.1703 212.257L48.2846 205.647L50.4183 204.393C50.9177 204.099 51.3883 203.938 51.83 203.908C52.278 203.874 52.6729 203.952 53.0145 204.143C53.3562 204.333 53.6366 204.615 53.8559 204.988C54.1235 205.443 54.2267 205.923 54.1656 206.426C54.1108 206.926 53.8545 207.388 53.3967 207.81L56.684 209.603L55.6504 210.211ZM51.0374 208.355L52.3081 207.608C52.7759 207.333 53.0599 207.013 53.16 206.648C53.2564 206.276 53.1912 205.898 52.9645 205.512C52.7341 205.12 52.4388 204.885 52.0785 204.808C51.7245 204.727 51.3105 204.826 50.8364 205.104L49.5657 205.851L51.0374 208.355ZM55.3294 202.45L56.6283 204.66L59.0369 203.244L59.455 203.955L57.0464 205.371L58.3843 207.647L61.0774 206.063L61.4955 206.775L57.9395 208.865L54.0483 202.246L57.6044 200.156L58.0225 200.867L55.3294 202.45ZM68.838 204.142L66.745 203.599C66.4746 203.877 66.1719 204.115 65.8368 204.312C65.2236 204.672 64.5805 204.859 63.9075 204.872C63.2308 204.878 62.5934 204.713 61.9952 204.375C61.3997 204.028 60.9124 203.532 60.5333 202.887C60.1542 202.242 59.9595 201.578 59.9493 200.895C59.9417 200.202 60.1071 199.565 60.4456 198.983C60.7804 198.395 61.2544 197.921 61.8676 197.56C62.4871 197.196 63.1353 197.01 63.812 197.004C64.485 196.991 65.1174 197.155 65.7092 197.496C66.301 197.837 66.7884 198.334 67.1712 198.985C67.5428 199.617 67.7382 200.268 67.7574 200.937C67.7766 201.606 67.6282 202.229 67.3124 202.806L69.9569 203.485L68.838 204.142ZM61.4152 202.369C61.7236 202.893 62.0992 203.293 62.542 203.569C62.9911 203.841 63.4621 203.977 63.9552 203.976C64.4545 203.972 64.9349 203.834 65.3964 203.563C65.8579 203.291 66.2088 202.94 66.4491 202.51C66.6957 202.076 66.8063 201.598 66.7808 201.077C66.7616 200.553 66.5977 200.028 66.2893 199.503C65.9771 198.972 65.5983 198.574 65.1529 198.308C64.7102 198.033 64.2423 197.895 63.7493 197.896C63.2562 197.896 62.7758 198.034 62.308 198.309C61.8402 198.584 61.4861 198.937 61.2458 199.367C61.0055 199.798 60.895 200.276 60.9142 200.8C60.936 201.315 61.103 201.838 61.4152 202.369ZM67.2328 194.508L69.6913 198.69C70.0369 199.278 70.4356 199.63 70.8873 199.748C71.3454 199.861 71.8304 199.767 72.3425 199.466C72.8482 199.169 73.1597 198.794 73.277 198.343C73.4005 197.887 73.2895 197.366 72.9439 196.778L70.4854 192.596L71.3483 192.089L73.8012 196.261C74.1246 196.811 74.2871 197.341 74.2888 197.85C74.2868 198.353 74.1501 198.808 73.8785 199.214C73.6133 199.617 73.2468 199.956 72.779 200.231C72.3112 200.506 71.8337 200.663 71.3466 200.703C70.8659 200.738 70.4052 200.635 69.9647 200.392C69.5268 200.139 69.1461 199.738 68.8228 199.188L66.3699 195.015L67.2328 194.508ZM74.0633 191.437L75.3622 193.646L77.7708 192.23L78.1889 192.941L75.7803 194.357L77.1183 196.633L79.8114 195.05L80.2295 195.761L76.6735 197.852L72.7823 191.233L76.3383 189.142L76.7564 189.853L74.0633 191.437ZM85.0154 192.948L81.8524 191.17L80.8093 191.784L82.3981 194.486L81.5352 194.994L77.6496 188.384L79.7832 187.13C80.2826 186.836 80.7532 186.674 81.1949 186.644C81.643 186.611 82.0378 186.689 82.3795 186.879C82.7211 187.07 83.0016 187.352 83.2208 187.725C83.4884 188.18 83.5917 188.659 83.5306 189.163C83.4758 189.663 83.2195 190.124 82.7617 190.547L86.049 192.34L85.0154 192.948ZM80.4024 191.091L81.673 190.344C82.1409 190.069 82.4248 189.749 82.5249 189.384C82.6213 189.013 82.5562 188.634 82.3295 188.249C82.099 187.857 81.8037 187.622 81.4434 187.545C81.0895 187.463 80.6754 187.562 80.2013 187.841L78.9306 188.588L80.4024 191.091ZM84.2818 184.485L88.1674 191.095L87.3045 191.602L83.4189 184.992L84.2818 184.485ZM92.4846 179.727L96.3424 186.289L95.4795 186.796L92.6029 181.903L93.2984 188.078L92.6915 188.435L87.6189 184.82L90.501 189.723L89.6381 190.23L85.7804 183.668L86.7097 183.122L92.326 187.119L91.5648 180.267L92.4846 179.727ZM94.7832 178.311L98.6688 184.921L97.8058 185.428L93.9202 178.819L94.7832 178.311ZM97.5293 177.641L98.8282 179.851L101.237 178.435L101.655 179.146L99.2464 180.562L100.584 182.838L103.277 181.255L103.695 181.966L100.139 184.056L96.2483 177.437L99.8043 175.347L100.222 176.058L97.5293 177.641ZM110.198 178.143L109.335 178.65L102.77 175.428L105.864 180.691L105.001 181.198L101.11 174.579L101.973 174.072L108.532 177.285L105.444 172.032L106.307 171.524L110.198 178.143ZM111.851 168.277L112.264 168.979L110.462 170.038L113.935 175.946L113.072 176.453L109.599 170.546L107.788 171.61L107.375 170.909L111.851 168.277ZM119.835 172.567C119.221 172.928 118.578 173.114 117.905 173.127C117.229 173.134 116.591 172.968 115.993 172.631C115.397 172.283 114.91 171.787 114.531 171.142C114.152 170.498 113.957 169.834 113.947 169.151C113.939 168.458 114.105 167.82 114.443 167.238C114.778 166.65 115.252 166.176 115.865 165.815C116.485 165.451 117.133 165.266 117.81 165.259C118.483 165.246 119.115 165.411 119.707 165.752C120.299 166.093 120.786 166.589 121.169 167.24C121.552 167.891 121.748 168.558 121.759 169.241C121.769 169.924 121.606 170.56 121.272 171.148C120.933 171.73 120.454 172.203 119.835 172.567ZM119.394 171.818C119.856 171.547 120.207 171.196 120.447 170.765C120.694 170.331 120.804 169.853 120.779 169.333C120.759 168.808 120.596 168.283 120.287 167.759C119.975 167.228 119.596 166.829 119.151 166.564C118.708 166.288 118.24 166.15 117.747 166.151C117.254 166.152 116.774 166.29 116.306 166.565C115.838 166.84 115.484 167.192 115.244 167.623C115.003 168.053 114.893 168.531 114.912 169.056C114.934 169.57 115.101 170.093 115.413 170.624C115.721 171.149 116.097 171.549 116.54 171.824C116.989 172.096 117.46 172.232 117.953 172.231C118.452 172.227 118.933 172.089 119.394 171.818ZM126.388 168.714C125.952 168.971 125.516 169.125 125.079 169.178C124.644 169.221 124.249 169.164 123.894 169.007C123.534 168.844 123.245 168.584 123.027 168.228L123.947 167.687C124.161 167.978 124.441 168.166 124.789 168.251C125.139 168.326 125.529 168.237 125.959 167.984C126.37 167.742 126.633 167.452 126.748 167.112C126.866 166.762 126.83 166.426 126.64 166.104C126.491 165.851 126.301 165.686 126.069 165.61C125.837 165.534 125.593 165.516 125.336 165.556C125.079 165.597 124.745 165.673 124.336 165.787C123.833 165.929 123.415 166.022 123.082 166.064C122.756 166.103 122.428 166.058 122.097 165.929C121.769 165.79 121.484 165.515 121.242 165.104C121.03 164.744 120.934 164.371 120.954 163.985C120.974 163.599 121.104 163.234 121.343 162.889C121.589 162.54 121.927 162.239 122.357 161.986C122.976 161.622 123.573 161.48 124.147 161.559C124.728 161.635 125.194 161.914 125.545 162.396L124.597 162.954C124.417 162.719 124.154 162.576 123.808 162.524C123.459 162.465 123.092 162.55 122.706 162.776C122.346 162.988 122.108 163.256 121.992 163.579C121.872 163.896 121.91 164.222 122.107 164.558C122.249 164.798 122.43 164.955 122.652 165.028C122.88 165.098 123.117 165.117 123.361 165.084C123.608 165.041 123.941 164.964 124.361 164.853C124.868 164.717 125.289 164.631 125.625 164.595C125.958 164.552 126.291 164.599 126.626 164.734C126.957 164.863 127.245 165.136 127.49 165.553C127.68 165.875 127.773 166.229 127.769 166.614C127.766 166.998 127.649 167.378 127.418 167.752C127.187 168.126 126.844 168.447 126.388 168.714Z" fill="black"/>
<path d="M130.23 160.319C129.834 159.659 130.3 158.818 131.07 158.804L134.533 158.744C135.303 158.73 135.799 159.555 135.425 160.229L133.746 163.258C133.373 163.932 132.411 163.948 132.014 163.289L130.23 160.319Z" fill="black"/>
<rect x="33.469" y="206.675" width="126.848" height="21.5787" rx="10.7893" transform="rotate(-30.4507 33.469 206.675)" stroke="black"/>
<path d="M26.66 15.96V30H23.24V15.96H26.66ZM35.9384 18.72C37.2451 18.72 38.2851 19.1467 39.0584 20C39.8451 20.84 40.2384 22 40.2384 23.48V30H36.8384V23.94C36.8384 23.1933 36.6451 22.6133 36.2584 22.2C35.8718 21.7867 35.3518 21.58 34.6984 21.58C34.0451 21.58 33.5251 21.7867 33.1384 22.2C32.7518 22.6133 32.5584 23.1933 32.5584 23.94V30H29.1384V18.84H32.5584V20.32C32.9051 19.8267 33.3718 19.44 33.9584 19.16C34.5451 18.8667 35.2051 18.72 35.9384 18.72ZM47.635 26.8L50.055 18.84H53.695L49.735 30H45.515L41.555 18.84H45.215L47.635 26.8ZM65.6545 24.24C65.6545 24.56 65.6345 24.8933 65.5945 25.24H57.8545C57.9079 25.9333 58.1279 26.4667 58.5145 26.84C58.9145 27.2 59.4012 27.38 59.9745 27.38C60.8279 27.38 61.4212 27.02 61.7545 26.3H65.3945C65.2079 27.0333 64.8679 27.6933 64.3745 28.28C63.8945 28.8667 63.2879 29.3267 62.5545 29.66C61.8212 29.9933 61.0012 30.16 60.0945 30.16C59.0012 30.16 58.0279 29.9267 57.1745 29.46C56.3212 28.9933 55.6545 28.3267 55.1745 27.46C54.6945 26.5933 54.4545 25.58 54.4545 24.42C54.4545 23.26 54.6879 22.2467 55.1545 21.38C55.6345 20.5133 56.3012 19.8467 57.1545 19.38C58.0079 18.9133 58.9879 18.68 60.0945 18.68C61.1745 18.68 62.1345 18.9067 62.9745 19.36C63.8145 19.8133 64.4679 20.46 64.9345 21.3C65.4145 22.14 65.6545 23.12 65.6545 24.24ZM62.1545 23.34C62.1545 22.7533 61.9545 22.2867 61.5545 21.94C61.1545 21.5933 60.6545 21.42 60.0545 21.42C59.4812 21.42 58.9945 21.5867 58.5945 21.92C58.2079 22.2533 57.9679 22.7267 57.8745 23.34H62.1545ZM71.9988 30.16C71.0254 30.16 70.1588 29.9933 69.3988 29.66C68.6388 29.3267 68.0388 28.8733 67.5988 28.3C67.1588 27.7133 66.9121 27.06 66.8588 26.34H70.2388C70.2788 26.7267 70.4588 27.04 70.7788 27.28C71.0988 27.52 71.4921 27.64 71.9588 27.64C72.3854 27.64 72.7121 27.56 72.9388 27.4C73.1788 27.2267 73.2988 27.0067 73.2988 26.74C73.2988 26.42 73.1321 26.1867 72.7988 26.04C72.4654 25.88 71.9254 25.7067 71.1788 25.52C70.3788 25.3333 69.7121 25.14 69.1788 24.94C68.6454 24.7267 68.1854 24.4 67.7988 23.96C67.4121 23.5067 67.2188 22.9 67.2188 22.14C67.2188 21.5 67.3921 20.92 67.7388 20.4C68.0988 19.8667 68.6188 19.4467 69.2988 19.14C69.9921 18.8333 70.8121 18.68 71.7588 18.68C73.1588 18.68 74.2588 19.0267 75.0588 19.72C75.8721 20.4133 76.3388 21.3333 76.4588 22.48H73.2988C73.2454 22.0933 73.0721 21.7867 72.7788 21.56C72.4988 21.3333 72.1254 21.22 71.6588 21.22C71.2588 21.22 70.9521 21.3 70.7388 21.46C70.5254 21.6067 70.4188 21.8133 70.4188 22.08C70.4188 22.4 70.5854 22.64 70.9188 22.8C71.2654 22.96 71.7988 23.12 72.5188 23.28C73.3454 23.4933 74.0188 23.7067 74.5388 23.92C75.0588 24.12 75.5121 24.4533 75.8988 24.92C76.2988 25.3733 76.5054 25.9867 76.5188 26.76C76.5188 27.4133 76.3321 28 75.9588 28.52C75.5988 29.0267 75.0721 29.4267 74.3788 29.72C73.6988 30.0133 72.9054 30.16 71.9988 30.16ZM84.8311 27.1V30H83.0911C81.8511 30 80.8844 29.7 80.1911 29.1C79.4978 28.4867 79.1511 27.4933 79.1511 26.12V21.68H77.7911V18.84H79.1511V16.12H82.5711V18.84H84.8111V21.68H82.5711V26.16C82.5711 26.4933 82.6511 26.7333 82.8111 26.88C82.9711 27.0267 83.2378 27.1 83.6111 27.1H84.8311ZM88.4561 17.68C87.8561 17.68 87.3628 17.5067 86.9761 17.16C86.6028 16.8 86.4161 16.36 86.4161 15.84C86.4161 15.3067 86.6028 14.8667 86.9761 14.52C87.3628 14.16 87.8561 13.98 88.4561 13.98C89.0428 13.98 89.5228 14.16 89.8961 14.52C90.2828 14.8667 90.4761 15.3067 90.4761 15.84C90.4761 16.36 90.2828 16.8 89.8961 17.16C89.5228 17.5067 89.0428 17.68 88.4561 17.68ZM90.1561 18.84V30H86.7361V18.84H90.1561ZM96.8745 18.68C97.6612 18.68 98.3479 18.84 98.9345 19.16C99.5345 19.48 99.9945 19.9 100.315 20.42V18.84H103.735V29.98C103.735 31.0067 103.528 31.9333 103.115 32.76C102.715 33.6 102.095 34.2667 101.255 34.76C100.428 35.2533 99.3945 35.5 98.1545 35.5C96.5012 35.5 95.1612 35.1067 94.1345 34.32C93.1079 33.5467 92.5212 32.4933 92.3745 31.16H95.7545C95.8612 31.5867 96.1145 31.92 96.5145 32.16C96.9145 32.4133 97.4079 32.54 97.9945 32.54C98.7012 32.54 99.2612 32.3333 99.6745 31.92C100.101 31.52 100.315 30.8733 100.315 29.98V28.4C99.9812 28.92 99.5212 29.3467 98.9345 29.68C98.3479 30 97.6612 30.16 96.8745 30.16C95.9545 30.16 95.1212 29.9267 94.3745 29.46C93.6279 28.98 93.0345 28.3067 92.5945 27.44C92.1679 26.56 91.9545 25.5467 91.9545 24.4C91.9545 23.2533 92.1679 22.2467 92.5945 21.38C93.0345 20.5133 93.6279 19.8467 94.3745 19.38C95.1212 18.9133 95.9545 18.68 96.8745 18.68ZM100.315 24.42C100.315 23.5667 100.075 22.8933 99.5945 22.4C99.1279 21.9067 98.5545 21.66 97.8745 21.66C97.1945 21.66 96.6145 21.9067 96.1345 22.4C95.6679 22.88 95.4345 23.5467 95.4345 24.4C95.4345 25.2533 95.6679 25.9333 96.1345 26.44C96.6145 26.9333 97.1945 27.18 97.8745 27.18C98.5545 27.18 99.1279 26.9333 99.5945 26.44C100.075 25.9467 100.315 25.2733 100.315 24.42ZM111.289 30.16C110.195 30.16 109.209 29.9267 108.329 29.46C107.462 28.9933 106.775 28.3267 106.269 27.46C105.775 26.5933 105.529 25.58 105.529 24.42C105.529 23.2733 105.782 22.2667 106.289 21.4C106.795 20.52 107.489 19.8467 108.369 19.38C109.249 18.9133 110.235 18.68 111.329 18.68C112.422 18.68 113.409 18.9133 114.289 19.38C115.169 19.8467 115.862 20.52 116.369 21.4C116.875 22.2667 117.129 23.2733 117.129 24.42C117.129 25.5667 116.869 26.58 116.349 27.46C115.842 28.3267 115.142 28.9933 114.249 29.46C113.369 29.9267 112.382 30.16 111.289 30.16ZM111.289 27.2C111.942 27.2 112.495 26.96 112.949 26.48C113.415 26 113.649 25.3133 113.649 24.42C113.649 23.5267 113.422 22.84 112.969 22.36C112.529 21.88 111.982 21.64 111.329 21.64C110.662 21.64 110.109 21.88 109.669 22.36C109.229 22.8267 109.009 23.5133 109.009 24.42C109.009 25.3133 109.222 26 109.649 26.48C110.089 26.96 110.635 27.2 111.289 27.2ZM134.581 18.84L127.581 35.3H123.901L126.461 29.62L121.921 18.84H125.741L128.321 25.82L130.881 18.84H134.581ZM37.48 48.72C38.8667 48.72 39.9667 49.14 40.78 49.98C41.6067 50.82 42.02 51.9867 42.02 53.48V60H38.62V53.94C38.62 53.22 38.4267 52.6667 38.04 52.28C37.6667 51.88 37.1467 51.68 36.48 51.68C35.8133 51.68 35.2867 51.88 34.9 52.28C34.5267 52.6667 34.34 53.22 34.34 53.94V60H30.94V53.94C30.94 53.22 30.7467 52.6667 30.36 52.28C29.9867 51.88 29.4667 51.68 28.8 51.68C28.1333 51.68 27.6067 51.88 27.22 52.28C26.8467 52.6667 26.66 53.22 26.66 53.94V60H23.24V48.84H26.66V50.24C27.0067 49.7733 27.46 49.4067 28.02 49.14C28.58 48.86 29.2133 48.72 29.92 48.72C30.76 48.72 31.5067 48.9 32.16 49.26C32.8267 49.62 33.3467 50.1333 33.72 50.8C34.1067 50.1867 34.6333 49.6867 35.3 49.3C35.9667 48.9133 36.6933 48.72 37.48 48.72ZM54.9319 54.24C54.9319 54.56 54.9119 54.8933 54.8719 55.24H47.1319C47.1852 55.9333 47.4052 56.4667 47.7919 56.84C48.1919 57.2 48.6785 57.38 49.2519 57.38C50.1052 57.38 50.6985 57.02 51.0319 56.3H54.6719C54.4852 57.0333 54.1452 57.6933 53.6519 58.28C53.1719 58.8667 52.5652 59.3267 51.8319 59.66C51.0985 59.9933 50.2785 60.16 49.3719 60.16C48.2785 60.16 47.3052 59.9267 46.4519 59.46C45.5985 58.9933 44.9319 58.3267 44.4519 57.46C43.9719 56.5933 43.7319 55.58 43.7319 54.42C43.7319 53.26 43.9652 52.2467 44.4319 51.38C44.9119 50.5133 45.5785 49.8467 46.4319 49.38C47.2852 48.9133 48.2652 48.68 49.3719 48.68C50.4519 48.68 51.4119 48.9067 52.2519 49.36C53.0919 49.8133 53.7452 50.46 54.2119 51.3C54.6919 52.14 54.9319 53.12 54.9319 54.24ZM51.4319 53.34C51.4319 52.7533 51.2319 52.2867 50.8319 51.94C50.4319 51.5933 49.9319 51.42 49.3319 51.42C48.7585 51.42 48.2719 51.5867 47.8719 51.92C47.4852 52.2533 47.2452 52.7267 47.1519 53.34H51.4319ZM58.4361 47.68C57.8361 47.68 57.3428 47.5067 56.9561 47.16C56.5828 46.8 56.3961 46.36 56.3961 45.84C56.3961 45.3067 56.5828 44.8667 56.9561 44.52C57.3428 44.16 57.8361 43.98 58.4361 43.98C59.0228 43.98 59.5028 44.16 59.8761 44.52C60.2628 44.8667 60.4561 45.3067 60.4561 45.84C60.4561 46.36 60.2628 46.8 59.8761 47.16C59.5028 47.5067 59.0228 47.68 58.4361 47.68ZM60.1561 61.44C60.1561 62.8133 59.8094 63.8 59.1161 64.4C58.4228 65.0133 57.4561 65.32 56.2161 65.32H54.8761V62.42H55.6961C56.0694 62.42 56.3361 62.3467 56.4961 62.2C56.6561 62.0533 56.7361 61.8133 56.7361 61.48V48.84H60.1561V61.44ZM67.695 60.16C66.6017 60.16 65.615 59.9267 64.735 59.46C63.8683 58.9933 63.1817 58.3267 62.675 57.46C62.1817 56.5933 61.935 55.58 61.935 54.42C61.935 53.2733 62.1883 52.2667 62.695 51.4C63.2017 50.52 63.895 49.8467 64.775 49.38C65.655 48.9133 66.6417 48.68 67.735 48.68C68.8283 48.68 69.815 48.9133 70.695 49.38C71.575 49.8467 72.2683 50.52 72.775 51.4C73.2817 52.2667 73.535 53.2733 73.535 54.42C73.535 55.5667 73.275 56.58 72.755 57.46C72.2483 58.3267 71.5483 58.9933 70.655 59.46C69.775 59.9267 68.7883 60.16 67.695 60.16ZM67.695 57.2C68.3483 57.2 68.9017 56.96 69.355 56.48C69.8217 56 70.055 55.3133 70.055 54.42C70.055 53.5267 69.8283 52.84 69.375 52.36C68.935 51.88 68.3883 51.64 67.735 51.64C67.0683 51.64 66.515 51.88 66.075 52.36C65.635 52.8267 65.415 53.5133 65.415 54.42C65.415 55.3133 65.6283 56 66.055 56.48C66.495 56.96 67.0417 57.2 67.695 57.2ZM78.7694 50.7C79.1694 50.0867 79.6694 49.6067 80.2694 49.26C80.8694 48.9 81.536 48.72 82.2694 48.72V52.34H81.3294C80.476 52.34 79.836 52.5267 79.4094 52.9C78.9827 53.26 78.7694 53.9 78.7694 54.82V60H75.3494V48.84H78.7694V50.7ZM88.9841 60.16C87.8907 60.16 86.9041 59.9267 86.0241 59.46C85.1574 58.9933 84.4707 58.3267 83.9641 57.46C83.4707 56.5933 83.2241 55.58 83.2241 54.42C83.2241 53.2733 83.4774 52.2667 83.9841 51.4C84.4907 50.52 85.1841 49.8467 86.0641 49.38C86.9441 48.9133 87.9307 48.68 89.0241 48.68C90.1174 48.68 91.1041 48.9133 91.9841 49.38C92.8641 49.8467 93.5574 50.52 94.0641 51.4C94.5707 52.2667 94.8241 53.2733 94.8241 54.42C94.8241 55.5667 94.5641 56.58 94.0441 57.46C93.5374 58.3267 92.8374 58.9933 91.9441 59.46C91.0641 59.9267 90.0774 60.16 88.9841 60.16ZM88.9841 57.2C89.6374 57.2 90.1907 56.96 90.6441 56.48C91.1107 56 91.3441 55.3133 91.3441 54.42C91.3441 53.5267 91.1174 52.84 90.6641 52.36C90.2241 51.88 89.6774 51.64 89.0241 51.64C88.3574 51.64 87.8041 51.88 87.3641 52.36C86.9241 52.8267 86.7041 53.5133 86.7041 54.42C86.7041 55.3133 86.9174 56 87.3441 56.48C87.7841 56.96 88.3307 57.2 88.9841 57.2ZM107.097 57.1V60H105.357C104.117 60 103.15 59.7 102.457 59.1C101.763 58.4867 101.417 57.4933 101.417 56.12V51.68H100.057V48.84H101.417V46.12H104.837V48.84H107.077V51.68H104.837V56.16C104.837 56.4933 104.917 56.7333 105.077 56.88C105.237 57.0267 105.503 57.1 105.877 57.1H107.097ZM120.022 48.84V60H116.602V58.48C116.255 58.9733 115.782 59.3733 115.182 59.68C114.595 59.9733 113.942 60.12 113.222 60.12C112.368 60.12 111.615 59.9333 110.962 59.56C110.308 59.1733 109.802 58.62 109.442 57.9C109.082 57.18 108.902 56.3333 108.902 55.36V48.84H112.302V54.9C112.302 55.6467 112.495 56.2267 112.882 56.64C113.268 57.0533 113.788 57.26 114.442 57.26C115.108 57.26 115.635 57.0533 116.022 56.64C116.408 56.2267 116.602 55.6467 116.602 54.9V48.84H120.022ZM26.66 80.42C26.9933 79.9 27.4533 79.48 28.04 79.16C28.6267 78.84 29.3133 78.68 30.1 78.68C31.02 78.68 31.8533 78.9133 32.6 79.38C33.3467 79.8467 33.9333 80.5133 34.36 81.38C34.8 82.2467 35.02 83.2533 35.02 84.4C35.02 85.5467 34.8 86.56 34.36 87.44C33.9333 88.3067 33.3467 88.98 32.6 89.46C31.8533 89.9267 31.02 90.16 30.1 90.16C29.3267 90.16 28.64 90 28.04 89.68C27.4533 89.36 26.9933 88.9467 26.66 88.44V95.32H23.24V78.84H26.66V80.42ZM31.54 84.4C31.54 83.5467 31.3 82.88 30.82 82.4C30.3533 81.9067 29.7733 81.66 29.08 81.66C28.4 81.66 27.82 81.9067 27.34 82.4C26.8733 82.8933 26.64 83.5667 26.64 84.42C26.64 85.2733 26.8733 85.9467 27.34 86.44C27.82 86.9333 28.4 87.18 29.08 87.18C29.76 87.18 30.34 86.9333 30.82 86.44C31.3 85.9333 31.54 85.2533 31.54 84.4ZM40.2342 80.7C40.6342 80.0867 41.1342 79.6067 41.7342 79.26C42.3342 78.9 43.0009 78.72 43.7342 78.72V82.34H42.7942C41.9409 82.34 41.3009 82.5267 40.8742 82.9C40.4476 83.26 40.2342 83.9 40.2342 84.82V90H36.8142V78.84H40.2342V80.7ZM50.4489 90.16C49.3556 90.16 48.3689 89.9267 47.4889 89.46C46.6222 88.9933 45.9356 88.3267 45.4289 87.46C44.9356 86.5933 44.6889 85.58 44.6889 84.42C44.6889 83.2733 44.9422 82.2667 45.4489 81.4C45.9556 80.52 46.6489 79.8467 47.5289 79.38C48.4089 78.9133 49.3956 78.68 50.4889 78.68C51.5822 78.68 52.5689 78.9133 53.4489 79.38C54.3289 79.8467 55.0222 80.52 55.5289 81.4C56.0356 82.2667 56.2889 83.2733 56.2889 84.42C56.2889 85.5667 56.0289 86.58 55.5089 87.46C55.0022 88.3267 54.3022 88.9933 53.4089 89.46C52.5289 89.9267 51.5422 90.16 50.4489 90.16ZM50.4489 87.2C51.1022 87.2 51.6556 86.96 52.1089 86.48C52.5756 86 52.8089 85.3133 52.8089 84.42C52.8089 83.5267 52.5822 82.84 52.1289 82.36C51.6889 81.88 51.1422 81.64 50.4889 81.64C49.8222 81.64 49.2689 81.88 48.8289 82.36C48.3889 82.8267 48.1689 83.5133 48.1689 84.42C48.1689 85.3133 48.3822 86 48.8089 86.48C49.2489 86.96 49.7956 87.2 50.4489 87.2ZM57.4233 84.4C57.4233 83.2533 57.6366 82.2467 58.0633 81.38C58.5033 80.5133 59.0966 79.8467 59.8433 79.38C60.5899 78.9133 61.4233 78.68 62.3433 78.68C63.0766 78.68 63.7433 78.8333 64.3433 79.14C64.9566 79.4467 65.4366 79.86 65.7833 80.38V75.2H69.2033V90H65.7833V88.4C65.4633 88.9333 65.0033 89.36 64.4033 89.68C63.8166 90 63.1299 90.16 62.3433 90.16C61.4233 90.16 60.5899 89.9267 59.8433 89.46C59.0966 88.98 58.5033 88.3067 58.0633 87.44C57.6366 86.56 57.4233 85.5467 57.4233 84.4ZM65.7833 84.42C65.7833 83.5667 65.5433 82.8933 65.0633 82.4C64.5966 81.9067 64.0233 81.66 63.3433 81.66C62.6633 81.66 62.0833 81.9067 61.6033 82.4C61.1366 82.88 60.9033 83.5467 60.9033 84.4C60.9033 85.2533 61.1366 85.9333 61.6033 86.44C62.0833 86.9333 62.6633 87.18 63.3433 87.18C64.0233 87.18 64.5966 86.9333 65.0633 86.44C65.5433 85.9467 65.7833 85.2733 65.7833 84.42ZM82.6975 78.84V90H79.2775V88.48C78.9308 88.9733 78.4575 89.3733 77.8575 89.68C77.2708 89.9733 76.6175 90.12 75.8975 90.12C75.0442 90.12 74.2908 89.9333 73.6375 89.56C72.9842 89.1733 72.4775 88.62 72.1175 87.9C71.7575 87.18 71.5775 86.3333 71.5775 85.36V78.84H74.9775V84.9C74.9775 85.6467 75.1708 86.2267 75.5575 86.64C75.9442 87.0533 76.4642 87.26 77.1175 87.26C77.7842 87.26 78.3108 87.0533 78.6975 86.64C79.0842 86.2267 79.2775 85.6467 79.2775 84.9V78.84H82.6975ZM84.4741 84.42C84.4741 83.26 84.7074 82.2467 85.1741 81.38C85.6541 80.5133 86.3141 79.8467 87.1541 79.38C88.0074 78.9133 88.9807 78.68 90.0741 78.68C91.4741 78.68 92.6407 79.0467 93.5741 79.78C94.5207 80.5133 95.1407 81.5467 95.4341 82.88H91.7941C91.4874 82.0267 90.8941 81.6 90.0141 81.6C89.3874 81.6 88.8874 81.8467 88.5141 82.34C88.1407 82.82 87.9541 83.5133 87.9541 84.42C87.9541 85.3267 88.1407 86.0267 88.5141 86.52C88.8874 87 89.3874 87.24 90.0141 87.24C90.8941 87.24 91.4874 86.8133 91.7941 85.96H95.4341C95.1407 87.2667 94.5207 88.2933 93.5741 89.04C92.6274 89.7867 91.4607 90.16 90.0741 90.16C88.9807 90.16 88.0074 89.9267 87.1541 89.46C86.3141 88.9933 85.6541 88.3267 85.1741 87.46C84.7074 86.5933 84.4741 85.58 84.4741 84.42ZM103.483 87.1V90H101.743C100.503 90 99.5368 89.7 98.8434 89.1C98.1501 88.4867 97.8034 87.4933 97.8034 86.12V81.68H96.4434V78.84H97.8034V76.12H101.223V78.84H103.463V81.68H101.223V86.16C101.223 86.4933 101.303 86.7333 101.463 86.88C101.623 87.0267 101.89 87.1 102.263 87.1H103.483ZM110.468 90.16C109.375 90.16 108.388 89.9267 107.508 89.46C106.642 88.9933 105.955 88.3267 105.448 87.46C104.955 86.5933 104.708 85.58 104.708 84.42C104.708 83.2733 104.962 82.2667 105.468 81.4C105.975 80.52 106.668 79.8467 107.548 79.38C108.428 78.9133 109.415 78.68 110.508 78.68C111.602 78.68 112.588 78.9133 113.468 79.38C114.348 79.8467 115.042 80.52 115.548 81.4C116.055 82.2667 116.308 83.2733 116.308 84.42C116.308 85.5667 116.048 86.58 115.528 87.46C115.022 88.3267 114.322 88.9933 113.428 89.46C112.548 89.9267 111.562 90.16 110.468 90.16ZM110.468 87.2C111.122 87.2 111.675 86.96 112.128 86.48C112.595 86 112.828 85.3133 112.828 84.42C112.828 83.5267 112.602 82.84 112.148 82.36C111.708 81.88 111.162 81.64 110.508 81.64C109.842 81.64 109.288 81.88 108.848 82.36C108.408 82.8267 108.188 83.5133 108.188 84.42C108.188 85.3133 108.402 86 108.828 86.48C109.268 86.96 109.815 87.2 110.468 87.2Z" fill="white"/>
<mask id="path-24-inside-1_259_695" fill="white">
<path fill-rule="evenodd" clip-rule="evenodd" d="M258.232 144.773C297.32 137.472 323.088 99.8651 315.787 60.7767C308.485 21.6883 270.879 -4.07992 231.79 3.2217C192.702 10.5233 166.934 48.1298 174.235 87.2182C177.073 102.409 184.488 115.589 194.788 125.597C196.618 127.375 128.297 206.176 128.297 206.176L146.072 219.641C146.072 219.641 206.912 135.16 209.433 136.595C223.708 144.717 240.823 148.025 258.232 144.773ZM257.314 139.858C293.688 133.064 317.666 98.0687 310.872 61.6948C304.077 25.3209 269.082 1.34212 232.708 8.13668C196.335 14.9312 172.356 49.9262 179.15 86.3001C185.945 122.674 220.94 146.653 257.314 139.858Z"/>
</mask>
<path fill-rule="evenodd" clip-rule="evenodd" d="M258.232 144.773C297.32 137.472 323.088 99.8651 315.787 60.7767C308.485 21.6883 270.879 -4.07992 231.79 3.2217C192.702 10.5233 166.934 48.1298 174.235 87.2182C177.073 102.409 184.488 115.589 194.788 125.597C196.618 127.375 128.297 206.176 128.297 206.176L146.072 219.641C146.072 219.641 206.912 135.16 209.433 136.595C223.708 144.717 240.823 148.025 258.232 144.773ZM257.314 139.858C293.688 133.064 317.666 98.0687 310.872 61.6948C304.077 25.3209 269.082 1.34212 232.708 8.13668C196.335 14.9312 172.356 49.9262 179.15 86.3001C185.945 122.674 220.94 146.653 257.314 139.858Z" fill="black"/>
<path d="M194.788 125.597L195.136 125.238L194.788 125.597ZM128.297 206.176L127.92 205.849L127.57 206.252L127.995 206.575L128.297 206.176ZM146.072 219.641L145.77 220.04L146.178 220.349L146.478 219.933L146.072 219.641ZM209.433 136.595L209.68 136.16L209.433 136.595ZM316.278 60.6849C316.004 59.2164 315.687 57.7665 315.329 56.3362L314.359 56.5789C314.712 57.9896 315.025 59.4198 315.295 60.8685L316.278 60.6849ZM312.648 47.8569C301.689 19.4063 273.789 0.704032 243.191 1.50964L243.217 2.5093C273.392 1.71485 300.908 20.1598 311.715 48.2164L312.648 47.8569ZM236.096 2.04528C234.634 2.22792 233.167 2.45589 231.698 2.7302L231.882 3.7132C233.331 3.44259 234.777 3.21772 236.22 3.03758L236.096 2.04528ZM231.698 2.7302C230.23 3.00452 228.78 3.32133 227.35 3.67914L227.593 4.64924C229.003 4.29632 230.433 3.98381 231.882 3.7132L231.698 2.7302ZM218.871 6.36039C190.42 17.3192 171.718 45.2192 172.523 75.8178L173.523 75.7915C172.728 45.617 191.173 18.1006 219.23 7.29355L218.871 6.36039ZM173.059 82.9121C173.242 84.375 173.47 85.8415 173.744 87.31L174.727 87.1264C174.456 85.6777 174.231 84.2312 174.051 82.7882L173.059 82.9121ZM173.744 87.31C173.851 87.8818 173.964 88.4507 174.083 89.0167L175.062 88.81C174.944 88.2516 174.832 87.6904 174.727 87.1264L173.744 87.31ZM174.883 92.4028C177.918 104.013 183.661 114.301 191.296 122.704L192.036 122.032C184.507 113.745 178.843 103.6 175.851 92.15L174.883 92.4028ZM193.206 124.728C193.613 125.142 194.024 125.552 194.44 125.955L195.136 125.238C194.726 124.84 194.321 124.436 193.92 124.028L193.206 124.728ZM194.44 125.955C194.317 125.836 194.324 125.704 194.324 125.701C194.325 125.688 194.325 125.709 194.302 125.777C194.256 125.909 194.158 126.115 193.994 126.401C193.67 126.967 193.137 127.766 192.413 128.777L193.226 129.359C193.954 128.342 194.512 127.509 194.862 126.898C195.035 126.595 195.17 126.326 195.247 126.104C195.284 125.996 195.318 125.87 195.323 125.743C195.328 125.625 195.312 125.409 195.136 125.238L194.44 125.955ZM187.461 135.268C174.674 151.445 147.594 183.036 134.837 197.841L135.594 198.493C148.347 183.695 175.442 152.086 188.245 135.888L187.461 135.268ZM130.567 202.789C129.723 203.766 129.061 204.531 128.61 205.051C128.385 205.312 128.212 205.511 128.096 205.645C128.038 205.712 127.994 205.763 127.964 205.797C127.949 205.814 127.938 205.827 127.931 205.836C127.927 205.84 127.924 205.843 127.922 205.845C127.921 205.846 127.921 205.847 127.92 205.848C127.92 205.848 127.92 205.848 127.92 205.848C127.92 205.848 127.92 205.848 127.92 205.848C127.92 205.848 127.92 205.849 127.92 205.849C127.92 205.849 127.92 205.849 128.297 206.176C128.675 206.504 128.675 206.504 128.675 206.504C128.675 206.504 128.675 206.504 128.675 206.504C128.675 206.504 128.675 206.503 128.675 206.503C128.675 206.503 128.676 206.503 128.676 206.503C128.676 206.502 128.677 206.501 128.678 206.5C128.68 206.498 128.683 206.495 128.686 206.491C128.694 206.482 128.705 206.469 128.72 206.452C128.749 206.418 128.793 206.367 128.852 206.3C128.968 206.166 129.141 205.966 129.366 205.706C129.817 205.185 130.479 204.42 131.323 203.443L130.567 202.789ZM127.995 206.575L128.69 207.101L129.294 206.304L128.599 205.778L127.995 206.575ZM130.078 208.153L143.965 218.672L144.569 217.875L130.682 207.355L130.078 208.153ZM145.076 219.514L145.77 220.04L146.374 219.243L145.68 218.717L145.076 219.514ZM146.072 219.641C146.478 219.933 146.478 219.933 146.478 219.933C146.478 219.933 146.478 219.933 146.478 219.933C146.478 219.933 146.478 219.933 146.478 219.933C146.478 219.933 146.478 219.933 146.478 219.933C146.479 219.932 146.479 219.931 146.48 219.93C146.482 219.928 146.484 219.924 146.488 219.92C146.494 219.91 146.504 219.897 146.518 219.878C146.544 219.842 146.583 219.787 146.635 219.715C146.739 219.571 146.893 219.357 147.095 219.078C147.498 218.519 148.09 217.699 148.847 216.652L148.036 216.066C147.28 217.113 146.687 217.934 146.284 218.493C146.082 218.772 145.928 218.986 145.824 219.13C145.772 219.202 145.733 219.257 145.706 219.294C145.693 219.312 145.683 219.326 145.676 219.335C145.673 219.34 145.671 219.343 145.669 219.346C145.668 219.347 145.667 219.348 145.667 219.348C145.667 219.348 145.667 219.349 145.667 219.349C145.666 219.349 145.666 219.349 145.666 219.349C145.666 219.349 145.666 219.349 145.666 219.349C145.666 219.349 145.666 219.349 146.072 219.641ZM153.649 210.023C165.822 193.254 190.377 159.661 202.614 144.563L201.837 143.933C189.579 159.057 165.007 192.674 152.84 209.436L153.649 210.023ZM206.821 139.563C207.638 138.649 208.297 137.966 208.78 137.536C209.025 137.318 209.205 137.182 209.327 137.111C209.388 137.075 209.412 137.07 209.405 137.072C209.401 137.073 209.304 137.096 209.186 137.029L209.68 136.16C209.49 136.052 209.296 136.07 209.173 136.099C209.047 136.129 208.928 136.187 208.824 136.247C208.616 136.368 208.376 136.557 208.115 136.789C207.589 137.258 206.899 137.975 206.076 138.896L206.821 139.563ZM209.186 137.029C209.761 137.357 210.341 137.676 210.926 137.988L211.396 137.106C210.82 136.798 210.248 136.483 209.68 136.16L209.186 137.029ZM214.481 139.762C226.239 145.233 239.561 147.604 253.216 146.035L253.102 145.041C239.635 146.589 226.499 144.25 214.903 138.855L214.481 139.762ZM256.365 145.603C257.018 145.5 257.67 145.387 258.324 145.265L258.14 144.282C257.496 144.402 256.852 144.513 256.208 144.616L256.365 145.603ZM258.324 145.265C259.792 144.99 261.242 144.674 262.672 144.316L262.43 143.346C261.019 143.699 259.589 144.011 258.14 144.282L258.324 145.265ZM271.152 141.635C299.602 130.676 318.305 102.776 317.499 72.1772L316.499 72.2035C317.294 102.378 298.849 129.894 270.792 140.701L271.152 141.635ZM316.963 65.0829C316.781 63.6199 316.553 62.1534 316.278 60.6849L315.295 60.8685C315.566 62.3172 315.791 63.7638 315.971 65.2068L316.963 65.0829ZM311.363 61.603C311.108 60.2358 310.813 58.8859 310.48 57.5543L309.51 57.797C309.838 59.109 310.129 60.4393 310.38 61.7866L311.363 61.603ZM307.984 49.6598C297.781 23.1712 271.805 5.75875 243.316 6.50881L243.343 7.50846C271.407 6.76958 296.999 23.9247 307.05 50.0192L307.984 49.6598ZM236.711 7.0075C235.349 7.17755 233.984 7.38979 232.617 7.64518L232.8 8.62818C234.148 8.37649 235.493 8.16735 236.835 7.9998L236.711 7.0075ZM232.617 7.64518C231.249 7.90058 229.899 8.19554 228.568 8.52867L228.811 9.49877C230.123 9.17053 231.453 8.87987 232.8 8.62818L232.617 7.64518ZM220.673 11.025C194.185 21.228 176.772 47.2039 177.522 75.6923L178.522 75.666C177.783 47.6017 194.938 22.0094 221.033 11.9582L220.673 11.025ZM178.021 82.2973C178.191 83.6594 178.403 85.0247 178.659 86.3919L179.642 86.2083C179.39 84.8609 179.181 83.5155 179.013 82.1734L178.021 82.2973ZM178.659 86.3919C178.914 87.7592 179.209 89.1091 179.542 90.4407L180.512 90.198C180.184 88.8859 179.893 87.5557 179.642 86.2083L178.659 86.3919ZM182.039 98.3352C192.242 124.824 218.217 142.236 246.706 141.486L246.68 140.487C218.615 141.225 193.023 124.07 182.972 97.9757L182.039 98.3352ZM253.311 140.987C254.673 140.817 256.038 140.605 257.406 140.35L257.222 139.367C255.875 139.618 254.529 139.828 253.187 139.995L253.311 140.987ZM257.406 140.35C258.773 140.094 260.123 139.799 261.454 139.466L261.212 138.496C259.9 138.824 258.569 139.115 257.222 139.367L257.406 140.35ZM269.349 136.97C295.837 126.767 313.25 100.791 312.5 72.3027L311.5 72.329C312.239 100.393 295.084 125.986 268.989 136.037L269.349 136.97ZM312.001 65.6977C311.831 64.3356 311.619 62.9702 311.363 61.603L310.38 61.7866C310.632 63.134 310.841 64.4795 311.009 65.8215L312.001 65.6977ZM194.788 125.597L195.485 124.88L194.788 125.597ZM128.297 206.176L127.542 205.521L126.842 206.328L127.694 206.973L128.297 206.176ZM146.072 219.641L145.468 220.438L146.285 221.057L146.884 220.226L146.072 219.641ZM209.433 136.595L209.927 135.726L209.433 136.595ZM316.77 60.5931C316.494 59.1147 316.175 57.6549 315.814 56.2149L313.874 56.7003C314.225 58.1012 314.535 59.5216 314.804 60.9603L316.77 60.5931ZM313.115 47.6772C302.08 19.0296 273.988 0.198622 243.178 1.00982L243.23 3.00912C273.193 2.22026 300.517 20.5365 311.248 48.3961L313.115 47.6772ZM236.035 1.54913C234.562 1.73302 233.085 1.96254 231.607 2.2387L231.974 4.2047C233.413 3.93594 234.849 3.71262 236.282 3.53373L236.035 1.54913ZM231.607 2.2387C230.128 2.51487 228.669 2.83383 227.228 3.19408L227.714 5.13429C229.115 4.78382 230.535 4.47346 231.974 4.2047L231.607 2.2387ZM218.691 5.8938C190.043 16.9284 171.212 45.0203 172.023 75.831L174.023 75.7783C173.234 45.8159 191.55 18.4913 219.41 7.76014L218.691 5.8938ZM172.563 82.974C172.747 84.447 172.976 85.9234 173.252 87.4019L175.218 87.0346C174.95 85.5958 174.726 84.1592 174.547 82.7262L172.563 82.974ZM173.252 87.4019C173.36 87.9774 173.474 88.5502 173.594 89.12L175.551 88.7066C175.434 88.1521 175.323 87.5947 175.218 87.0346L173.252 87.4019ZM174.399 92.5293C177.455 104.22 183.238 114.579 190.926 123.04L192.406 121.696C184.93 113.467 179.306 103.393 176.334 92.0235L174.399 92.5293ZM192.85 125.078C193.259 125.495 193.673 125.907 194.091 126.314L195.485 124.88C195.078 124.484 194.675 124.083 194.277 123.678L192.85 125.078ZM194.091 126.314C193.82 126.05 193.822 125.743 193.825 125.679C193.828 125.597 193.846 125.566 193.829 125.614C193.799 125.701 193.719 125.874 193.56 126.152C193.249 126.695 192.728 127.479 192.006 128.486L193.632 129.651C194.363 128.63 194.933 127.78 195.296 127.146C195.473 126.836 195.627 126.534 195.719 126.268C195.764 126.139 195.814 125.961 195.823 125.765C195.831 125.586 195.809 125.195 195.485 124.88L194.091 126.314ZM187.068 134.958C174.289 151.125 147.218 182.707 134.458 197.514L135.973 198.82C148.724 184.024 175.826 152.406 188.638 136.198L187.068 134.958ZM130.188 202.462C129.344 203.439 128.683 204.203 128.232 204.724C128.007 204.984 127.834 205.184 127.718 205.318C127.66 205.385 127.616 205.436 127.586 205.47C127.571 205.487 127.56 205.5 127.553 205.508C127.549 205.512 127.546 205.516 127.545 205.518C127.544 205.519 127.543 205.52 127.543 205.52C127.542 205.52 127.542 205.521 127.542 205.521C127.542 205.521 127.542 205.521 127.542 205.521C127.542 205.521 127.542 205.521 127.542 205.521C127.542 205.521 127.542 205.521 128.297 206.176C129.053 206.831 129.053 206.831 129.053 206.831C129.053 206.831 129.053 206.831 129.053 206.831C129.053 206.831 129.053 206.831 129.053 206.831C129.053 206.831 129.053 206.831 129.054 206.83C129.054 206.83 129.055 206.829 129.056 206.828C129.058 206.826 129.06 206.822 129.064 206.818C129.072 206.81 129.083 206.797 129.098 206.78C129.127 206.746 129.171 206.695 129.229 206.627C129.346 206.493 129.519 206.294 129.744 206.033C130.195 205.512 130.857 204.747 131.702 203.77L130.188 202.462ZM127.694 206.973L128.388 207.499L129.596 205.905L128.901 205.379L127.694 206.973ZM129.777 208.551L143.663 219.071L144.871 217.477L130.984 206.957L129.777 208.551ZM144.774 219.912L145.468 220.438L146.676 218.844L145.982 218.318L144.774 219.912ZM146.072 219.641C146.884 220.226 146.884 220.226 146.884 220.226C146.884 220.226 146.884 220.226 146.884 220.226C146.884 220.226 146.884 220.225 146.884 220.225C146.884 220.225 146.884 220.225 146.884 220.225C146.885 220.224 146.885 220.223 146.886 220.222C146.888 220.22 146.89 220.216 146.894 220.212C146.9 220.203 146.91 220.189 146.923 220.171C146.95 220.134 146.989 220.08 147.041 220.007C147.145 219.863 147.299 219.65 147.5 219.37C147.903 218.812 148.495 217.991 149.252 216.945L147.631 215.773C146.874 216.82 146.282 217.641 145.878 218.2C145.677 218.48 145.522 218.694 145.418 218.838C145.366 218.91 145.327 218.965 145.301 219.001C145.287 219.02 145.277 219.034 145.271 219.043C145.267 219.047 145.265 219.051 145.263 219.053C145.262 219.054 145.262 219.055 145.261 219.056C145.261 219.056 145.261 219.056 145.261 219.057C145.261 219.057 145.261 219.057 145.261 219.057C145.261 219.057 145.261 219.057 145.261 219.057C145.261 219.057 145.261 219.057 146.072 219.641ZM154.054 210.317C166.23 193.543 190.775 159.964 203.003 144.877L201.449 143.618C189.181 158.755 164.6 192.385 152.435 209.142L154.054 210.317ZM207.194 139.896C208.008 138.986 208.652 138.32 209.113 137.909C209.349 137.699 209.5 137.589 209.578 137.544C209.619 137.52 209.595 137.541 209.521 137.558C209.454 137.574 209.21 137.619 208.938 137.464L209.927 135.726C209.583 135.53 209.243 135.568 209.057 135.613C208.864 135.659 208.697 135.742 208.573 135.814C208.321 135.961 208.051 136.176 207.783 136.416C207.234 136.904 206.53 137.638 205.703 138.563L207.194 139.896ZM208.938 137.464C209.518 137.794 210.102 138.115 210.69 138.429L211.632 136.665C211.059 136.359 210.491 136.046 209.927 135.726L208.938 137.464ZM214.27 140.215C226.109 145.724 239.524 148.112 253.273 146.531L253.045 144.545C239.673 146.082 226.629 143.759 215.114 138.402L214.27 140.215ZM256.444 146.097C257.101 145.993 257.758 145.879 258.415 145.756L258.048 143.79C257.408 143.91 256.769 144.02 256.13 144.122L256.444 146.097ZM258.415 145.756C259.894 145.48 261.354 145.161 262.794 144.801L262.308 142.861C260.907 143.211 259.487 143.522 258.048 143.79L258.415 145.756ZM271.331 142.101C299.979 131.067 318.81 102.975 317.999 72.164L315.999 72.2166C316.788 102.179 298.472 129.504 270.612 140.235L271.331 142.101ZM317.459 65.021C317.276 63.548 317.046 62.0715 316.77 60.5931L314.804 60.9603C315.073 62.3991 315.296 63.8357 315.475 65.2687L317.459 65.021ZM311.855 61.5112C311.598 60.1341 311.301 58.7743 310.965 57.433L309.025 57.9183C309.351 59.2206 309.639 60.541 309.889 61.8785L311.855 61.5112ZM308.45 49.4801C298.171 22.7945 272.004 5.25334 243.303 6.00898L243.356 8.00829C271.208 7.27499 296.608 24.3014 306.584 50.1989L308.45 49.4801ZM236.649 6.51135C235.277 6.68265 233.902 6.89644 232.525 7.15369L232.892 9.11968C234.23 8.86984 235.565 8.66225 236.897 8.49595L236.649 6.51135ZM232.525 7.15369C231.148 7.41093 229.788 7.70804 228.447 8.04362L228.932 9.98382C230.234 9.65803 231.555 9.36952 232.892 9.11968L232.525 7.15369ZM220.494 10.5584C193.808 20.8373 176.267 47.005 177.023 75.7055L179.022 75.6528C178.289 47.8006 195.315 22.4001 221.213 12.4248L220.494 10.5584ZM177.525 82.3592C177.696 83.7313 177.91 85.1066 178.167 86.4838L180.133 86.1165C179.883 84.779 179.676 83.4436 179.51 82.1115L177.525 82.3592ZM178.167 86.4838C178.425 87.8609 178.722 89.2206 179.057 90.562L180.997 90.0766C180.672 88.7743 180.383 87.454 180.133 86.1165L178.167 86.4838ZM181.572 98.5149C191.851 125.2 218.019 142.742 246.719 141.986L246.666 139.987C218.814 140.72 193.414 123.694 183.438 97.796L181.572 98.5149ZM253.373 141.484C254.745 141.312 256.12 141.099 257.497 140.841L257.13 138.875C255.793 139.125 254.457 139.333 253.125 139.499L253.373 141.484ZM257.497 140.841C258.874 140.584 260.234 140.287 261.576 139.951L261.09 138.011C259.788 138.337 258.468 138.625 257.13 138.875L257.497 140.841ZM269.528 137.437C296.214 127.158 313.755 100.99 313 72.2895L311 72.3421C311.734 100.194 294.707 125.595 268.81 135.57L269.528 137.437ZM312.497 65.6357C312.326 64.2637 312.112 62.8883 311.855 61.5112L309.889 61.8785C310.139 63.2159 310.346 64.5514 310.513 65.8835L312.497 65.6357Z" fill="black" mask="url(#path-24-inside-1_259_695)"/>
<circle cx="242" cy="70" r="67" fill="#0E1400" fill-opacity="0.33"/>
</svg>
