<svg width="277" height="336" viewBox="0 0 277 336" fill="none" xmlns="http://www.w3.org/2000/svg">
<g clip-path="url(#clip0_259_693)">
<path d="M273.5 275.5L11 215" stroke="black" stroke-dasharray="10 10 100 8"/>
<path d="M155.39 258.436H157.914V257.786H183.153V258.436H185.424V257.786H186.643C186.623 257.483 186.598 257.084 186.57 256.612L185.921 256.651C185.737 253.582 185.413 247.337 185.627 244.357L186.276 244.404C186.308 243.955 186.353 243.584 186.412 243.312L185.777 243.173C185.817 242.993 185.871 242.801 185.957 242.638C186.025 242.51 186.225 242.186 186.638 242.155C187.907 242.06 189.153 241.931 190.374 241.769L190.46 242.413C193.042 242.07 195.52 241.58 197.894 240.951L197.728 240.323C222.768 233.693 236.209 211.424 238.861 183.534L239.508 183.596C239.721 181.36 239.864 179.09 239.939 176.79L239.289 176.769C239.33 175.521 239.35 174.265 239.35 173C239.35 171.582 239.307 170.173 239.224 168.776L239.872 168.737C239.7 165.868 239.355 163.045 238.847 160.279L238.208 160.396C232.98 131.924 210.361 109.533 181.772 104.645L181.881 104.004C179.385 103.577 176.842 103.283 174.263 103.128L174.224 103.776C172.827 103.693 171.418 103.65 170 103.65C168.582 103.65 167.173 103.693 165.776 103.776L165.737 103.128C162.868 103.3 160.045 103.645 157.279 104.153L157.396 104.792C128.924 110.02 106.533 132.639 101.645 161.228L101.004 161.118C100.577 163.615 100.283 166.158 100.128 168.737L100.776 168.776C100.693 170.173 100.65 171.582 100.65 173C100.65 174.27 100.671 175.533 100.714 176.786L100.065 176.808C100.152 179.379 100.33 181.914 100.597 184.404L101.243 184.335C104.222 212.097 118.387 234.164 143.763 240.504L143.606 241.134C145.768 241.675 148.012 242.102 150.336 242.411L150.422 241.767C151.65 241.93 152.902 242.06 154.176 242.155C154.589 242.186 154.789 242.51 154.857 242.638C154.942 242.801 154.997 242.993 155.037 243.173L154.402 243.312C154.466 243.608 154.514 244.022 154.546 244.524L155.195 244.482C155.394 247.547 155.065 253.791 154.885 256.776L154.236 256.737C154.211 257.154 154.189 257.51 154.171 257.786H155.39V258.436Z" fill="#6B00D7" fill-opacity="0.2" stroke="black" stroke-width="1.3" stroke-dasharray="10 10 100 9"/>
<path d="M178.546 261.314C178.546 261.314 180.988 180.083 195.639 186.023C197.945 186.958 199.277 187.477 201.337 188.872C210.156 194.84 131.235 195.084 139.883 188.872C141.789 187.503 143.032 186.982 145.174 186.023C158.197 180.191 162.267 261.314 162.267 261.314" stroke="white" stroke-width="2"/>
<rect x="152.906" y="256.841" width="35" height="8.13953" rx="4.06977" fill="#04091D"/>
<rect width="31.7442" height="4.88372" rx="2.44186" transform="matrix(1 0 0 -1 154.535 269.859)" fill="#03050D"/>
<rect x="156.977" y="269.859" width="26.8605" height="4.88372" rx="2.44186" fill="#4A4A4A"/>
<path d="M26.66 15.96V30H23.24V15.96H26.66ZM28.4584 24.4C28.4584 23.2533 28.6718 22.2467 29.0984 21.38C29.5384 20.5133 30.1318 19.8467 30.8784 19.38C31.6251 18.9133 32.4584 18.68 33.3784 18.68C34.1118 18.68 34.7784 18.8333 35.3784 19.14C35.9918 19.4467 36.4718 19.86 36.8184 20.38V15.2H40.2384V30H36.8184V28.4C36.4984 28.9333 36.0384 29.36 35.4384 29.68C34.8518 30 34.1651 30.16 33.3784 30.16C32.4584 30.16 31.6251 29.9267 30.8784 29.46C30.1318 28.98 29.5384 28.3067 29.0984 27.44C28.6718 26.56 28.4584 25.5467 28.4584 24.4ZM36.8184 24.42C36.8184 23.5667 36.5784 22.8933 36.0984 22.4C35.6318 21.9067 35.0584 21.66 34.3784 21.66C33.6984 21.66 33.1184 21.9067 32.6384 22.4C32.1718 22.88 31.9384 23.5467 31.9384 24.4C31.9384 25.2533 32.1718 25.9333 32.6384 26.44C33.1184 26.9333 33.6984 27.18 34.3784 27.18C35.0584 27.18 35.6318 26.9333 36.0984 26.44C36.5784 25.9467 36.8184 25.2733 36.8184 24.42ZM53.2327 24.24C53.2327 24.56 53.2127 24.8933 53.1727 25.24H45.4327C45.486 25.9333 45.706 26.4667 46.0927 26.84C46.4927 27.2 46.9793 27.38 47.5527 27.38C48.406 27.38 48.9993 27.02 49.3327 26.3H52.9727C52.786 27.0333 52.446 27.6933 51.9527 28.28C51.4727 28.8667 50.866 29.3267 50.1327 29.66C49.3993 29.9933 48.5793 30.16 47.6727 30.16C46.5793 30.16 45.606 29.9267 44.7527 29.46C43.8993 28.9933 43.2327 28.3267 42.7527 27.46C42.2727 26.5933 42.0327 25.58 42.0327 24.42C42.0327 23.26 42.266 22.2467 42.7327 21.38C43.2127 20.5133 43.8793 19.8467 44.7327 19.38C45.586 18.9133 46.566 18.68 47.6727 18.68C48.7527 18.68 49.7127 18.9067 50.5527 19.36C51.3927 19.8133 52.046 20.46 52.5127 21.3C52.9927 22.14 53.2327 23.12 53.2327 24.24ZM49.7327 23.34C49.7327 22.7533 49.5327 22.2867 49.1327 21.94C48.7327 21.5933 48.2327 21.42 47.6327 21.42C47.0593 21.42 46.5727 21.5867 46.1727 21.92C45.786 22.2533 45.546 22.7267 45.4527 23.34H49.7327ZM54.3569 24.4C54.3569 23.2533 54.5702 22.2467 54.9969 21.38C55.4369 20.5133 56.0302 19.8467 56.7769 19.38C57.5235 18.9133 58.3569 18.68 59.2769 18.68C60.0635 18.68 60.7502 18.84 61.3369 19.16C61.9369 19.48 62.3969 19.9 62.7169 20.42V18.84H66.1369V30H62.7169V28.42C62.3835 28.94 61.9169 29.36 61.3169 29.68C60.7302 30 60.0435 30.16 59.2569 30.16C58.3502 30.16 57.5235 29.9267 56.7769 29.46C56.0302 28.98 55.4369 28.3067 54.9969 27.44C54.5702 26.56 54.3569 25.5467 54.3569 24.4ZM62.7169 24.42C62.7169 23.5667 62.4769 22.8933 61.9969 22.4C61.5302 21.9067 60.9569 21.66 60.2769 21.66C59.5969 21.66 59.0169 21.9067 58.5369 22.4C58.0702 22.88 57.8369 23.5467 57.8369 24.4C57.8369 25.2533 58.0702 25.9333 58.5369 26.44C59.0169 26.9333 59.5969 27.18 60.2769 27.18C60.9569 27.18 61.5302 26.9333 61.9969 26.44C62.4769 25.9467 62.7169 25.2733 62.7169 24.42ZM72.0311 15.2V30H68.6111V15.2H72.0311ZM76.2295 17.68C75.6295 17.68 75.1362 17.5067 74.7495 17.16C74.3762 16.8 74.1895 16.36 74.1895 15.84C74.1895 15.3067 74.3762 14.8667 74.7495 14.52C75.1362 14.16 75.6295 13.98 76.2295 13.98C76.8162 13.98 77.2962 14.16 77.6695 14.52C78.0562 14.8667 78.2495 15.3067 78.2495 15.84C78.2495 16.36 78.0562 16.8 77.6695 17.16C77.2962 17.5067 76.8162 17.68 76.2295 17.68ZM77.9295 18.84V30H74.5095V18.84H77.9295ZM83.608 27.18H88.448V30H79.788V27.28L84.428 21.66H79.828V18.84H88.348V21.56L83.608 27.18ZM95.4098 30.16C94.3165 30.16 93.3298 29.9267 92.4498 29.46C91.5832 28.9933 90.8965 28.3267 90.3898 27.46C89.8965 26.5933 89.6498 25.58 89.6498 24.42C89.6498 23.2733 89.9032 22.2667 90.4098 21.4C90.9165 20.52 91.6098 19.8467 92.4898 19.38C93.3698 18.9133 94.3565 18.68 95.4498 18.68C96.5432 18.68 97.5298 18.9133 98.4098 19.38C99.2898 19.8467 99.9832 20.52 100.49 21.4C100.997 22.2667 101.25 23.2733 101.25 24.42C101.25 25.5667 100.99 26.58 100.47 27.46C99.9632 28.3267 99.2632 28.9933 98.3698 29.46C97.4898 29.9267 96.5032 30.16 95.4098 30.16ZM95.4098 27.2C96.0632 27.2 96.6165 26.96 97.0698 26.48C97.5365 26 97.7698 25.3133 97.7698 24.42C97.7698 23.5267 97.5432 22.84 97.0898 22.36C96.6498 21.88 96.1032 21.64 95.4498 21.64C94.7832 21.64 94.2298 21.88 93.7898 22.36C93.3498 22.8267 93.1298 23.5133 93.1298 24.42C93.1298 25.3133 93.3432 26 93.7698 26.48C94.2098 26.96 94.7565 27.2 95.4098 27.2ZM29.46 57.1V60H27.72C26.48 60 25.5133 59.7 24.82 59.1C24.1267 58.4867 23.78 57.4933 23.78 56.12V51.68H22.42V48.84H23.78V46.12H27.2V48.84H29.44V51.68H27.2V56.16C27.2 56.4933 27.28 56.7333 27.44 56.88C27.6 57.0267 27.8667 57.1 28.24 57.1H29.46ZM42.385 48.84V60H38.965V58.48C38.6183 58.9733 38.145 59.3733 37.545 59.68C36.9583 59.9733 36.305 60.12 35.585 60.12C34.7317 60.12 33.9783 59.9333 33.325 59.56C32.6717 59.1733 32.165 58.62 31.805 57.9C31.445 57.18 31.265 56.3333 31.265 55.36V48.84H34.665V54.9C34.665 55.6467 34.8583 56.2267 35.245 56.64C35.6317 57.0533 36.1517 57.26 36.805 57.26C37.4717 57.26 37.9983 57.0533 38.385 56.64C38.7717 56.2267 38.965 55.6467 38.965 54.9V48.84H42.385ZM49.3816 60.16C48.4082 60.16 47.5416 59.9933 46.7816 59.66C46.0216 59.3267 45.4216 58.8733 44.9816 58.3C44.5416 57.7133 44.2949 57.06 44.2416 56.34H47.6216C47.6616 56.7267 47.8416 57.04 48.1616 57.28C48.4816 57.52 48.8749 57.64 49.3416 57.64C49.7682 57.64 50.0949 57.56 50.3216 57.4C50.5616 57.2267 50.6816 57.0067 50.6816 56.74C50.6816 56.42 50.5149 56.1867 50.1816 56.04C49.8482 55.88 49.3082 55.7067 48.5616 55.52C47.7616 55.3333 47.0949 55.14 46.5616 54.94C46.0282 54.7267 45.5682 54.4 45.1816 53.96C44.7949 53.5067 44.6016 52.9 44.6016 52.14C44.6016 51.5 44.7749 50.92 45.1216 50.4C45.4816 49.8667 46.0016 49.4467 46.6816 49.14C47.3749 48.8333 48.1949 48.68 49.1416 48.68C50.5416 48.68 51.6416 49.0267 52.4416 49.72C53.2549 50.4133 53.7216 51.3333 53.8416 52.48H50.6816C50.6282 52.0933 50.4549 51.7867 50.1616 51.56C49.8816 51.3333 49.5082 51.22 49.0416 51.22C48.6416 51.22 48.3349 51.3 48.1216 51.46C47.9082 51.6067 47.8016 51.8133 47.8016 52.08C47.8016 52.4 47.9682 52.64 48.3016 52.8C48.6482 52.96 49.1816 53.12 49.9016 53.28C50.7282 53.4933 51.4016 53.7067 51.9216 53.92C52.4416 54.12 52.8949 54.4533 53.2816 54.92C53.6816 55.3733 53.8882 55.9867 53.9016 56.76C53.9016 57.4133 53.7149 58 53.3416 58.52C52.9816 59.0267 52.4549 59.4267 51.7616 59.72C51.0816 60.0133 50.2882 60.16 49.3816 60.16ZM26.66 80.42C26.9933 79.9 27.4533 79.48 28.04 79.16C28.6267 78.84 29.3133 78.68 30.1 78.68C31.02 78.68 31.8533 78.9133 32.6 79.38C33.3467 79.8467 33.9333 80.5133 34.36 81.38C34.8 82.2467 35.02 83.2533 35.02 84.4C35.02 85.5467 34.8 86.56 34.36 87.44C33.9333 88.3067 33.3467 88.98 32.6 89.46C31.8533 89.9267 31.02 90.16 30.1 90.16C29.3267 90.16 28.64 90 28.04 89.68C27.4533 89.36 26.9933 88.9467 26.66 88.44V95.32H23.24V78.84H26.66V80.42ZM31.54 84.4C31.54 83.5467 31.3 82.88 30.82 82.4C30.3533 81.9067 29.7733 81.66 29.08 81.66C28.4 81.66 27.82 81.9067 27.34 82.4C26.8733 82.8933 26.64 83.5667 26.64 84.42C26.64 85.2733 26.8733 85.9467 27.34 86.44C27.82 86.9333 28.4 87.18 29.08 87.18C29.76 87.18 30.34 86.9333 30.82 86.44C31.3 85.9333 31.54 85.2533 31.54 84.4ZM40.2342 80.7C40.6342 80.0867 41.1342 79.6067 41.7342 79.26C42.3342 78.9 43.0009 78.72 43.7342 78.72V82.34H42.7942C41.9409 82.34 41.3009 82.5267 40.8742 82.9C40.4476 83.26 40.2342 83.9 40.2342 84.82V90H36.8142V78.84H40.2342V80.7ZM50.4489 90.16C49.3556 90.16 48.3689 89.9267 47.4889 89.46C46.6222 88.9933 45.9356 88.3267 45.4289 87.46C44.9356 86.5933 44.6889 85.58 44.6889 84.42C44.6889 83.2733 44.9422 82.2667 45.4489 81.4C45.9556 80.52 46.6489 79.8467 47.5289 79.38C48.4089 78.9133 49.3956 78.68 50.4889 78.68C51.5822 78.68 52.5689 78.9133 53.4489 79.38C54.3289 79.8467 55.0222 80.52 55.5289 81.4C56.0356 82.2667 56.2889 83.2733 56.2889 84.42C56.2889 85.5667 56.0289 86.58 55.5089 87.46C55.0022 88.3267 54.3022 88.9933 53.4089 89.46C52.5289 89.9267 51.5422 90.16 50.4489 90.16ZM50.4489 87.2C51.1022 87.2 51.6556 86.96 52.1089 86.48C52.5756 86 52.8089 85.3133 52.8089 84.42C52.8089 83.5267 52.5822 82.84 52.1289 82.36C51.6889 81.88 51.1422 81.64 50.4889 81.64C49.8222 81.64 49.2689 81.88 48.8289 82.36C48.3889 82.8267 48.1689 83.5133 48.1689 84.42C48.1689 85.3133 48.3822 86 48.8089 86.48C49.2489 86.96 49.7956 87.2 50.4489 87.2ZM69.5033 78.84L62.5033 95.3H58.8233L61.3833 89.62L56.8433 78.84H60.6633L63.2433 85.82L65.8033 78.84H69.5033ZM81.26 84.24C81.26 84.56 81.24 84.8933 81.2 85.24H73.46C73.5133 85.9333 73.7333 86.4667 74.12 86.84C74.52 87.2 75.0067 87.38 75.58 87.38C76.4333 87.38 77.0267 87.02 77.36 86.3H81C80.8133 87.0333 80.4733 87.6933 79.98 88.28C79.5 88.8667 78.8933 89.3267 78.16 89.66C77.4267 89.9933 76.6067 90.16 75.7 90.16C74.6067 90.16 73.6333 89.9267 72.78 89.46C71.9267 88.9933 71.26 88.3267 70.78 87.46C70.3 86.5933 70.06 85.58 70.06 84.42C70.06 83.26 70.2933 82.2467 70.76 81.38C71.24 80.5133 71.9067 79.8467 72.76 79.38C73.6133 78.9133 74.5933 78.68 75.7 78.68C76.78 78.68 77.74 78.9067 78.58 79.36C79.42 79.8133 80.0733 80.46 80.54 81.3C81.02 82.14 81.26 83.12 81.26 84.24ZM77.76 83.34C77.76 82.7533 77.56 82.2867 77.16 81.94C76.76 81.5933 76.26 81.42 75.66 81.42C75.0867 81.42 74.6 81.5867 74.2 81.92C73.8133 82.2533 73.5733 82.7267 73.48 83.34H77.76ZM82.3842 84.42C82.3842 83.26 82.6176 82.2467 83.0842 81.38C83.5642 80.5133 84.2242 79.8467 85.0642 79.38C85.9176 78.9133 86.8909 78.68 87.9842 78.68C89.3842 78.68 90.5509 79.0467 91.4842 79.78C92.4309 80.5133 93.0509 81.5467 93.3442 82.88H89.7042C89.3976 82.0267 88.8042 81.6 87.9242 81.6C87.2976 81.6 86.7976 81.8467 86.4242 82.34C86.0509 82.82 85.8642 83.5133 85.8642 84.42C85.8642 85.3267 86.0509 86.0267 86.4242 86.52C86.7976 87 87.2976 87.24 87.9242 87.24C88.8042 87.24 89.3976 86.8133 89.7042 85.96H93.3442C93.0509 87.2667 92.4309 88.2933 91.4842 89.04C90.5376 89.7867 89.3709 90.16 87.9842 90.16C86.8909 90.16 85.9176 89.9267 85.0642 89.46C84.2242 88.9933 83.5642 88.3267 83.0842 87.46C82.6176 86.5933 82.3842 85.58 82.3842 84.42ZM101.394 87.1V90H99.6536C98.4136 90 97.4469 89.7 96.7536 89.1C96.0603 88.4867 95.7136 87.4933 95.7136 86.12V81.68H94.3536V78.84H95.7136V76.12H99.1336V78.84H101.374V81.68H99.1336V86.16C99.1336 86.4933 99.2136 86.7333 99.3736 86.88C99.5336 87.0267 99.8003 87.1 100.174 87.1H101.394ZM108.379 90.16C107.285 90.16 106.299 89.9267 105.419 89.46C104.552 88.9933 103.865 88.3267 103.359 87.46C102.865 86.5933 102.619 85.58 102.619 84.42C102.619 83.2733 102.872 82.2667 103.379 81.4C103.885 80.52 104.579 79.8467 105.459 79.38C106.339 78.9133 107.325 78.68 108.419 78.68C109.512 78.68 110.499 78.9133 111.379 79.38C112.259 79.8467 112.952 80.52 113.459 81.4C113.965 82.2667 114.219 83.2733 114.219 84.42C114.219 85.5667 113.959 86.58 113.439 87.46C112.932 88.3267 112.232 88.9933 111.339 89.46C110.459 89.9267 109.472 90.16 108.379 90.16ZM108.379 87.2C109.032 87.2 109.585 86.96 110.039 86.48C110.505 86 110.739 85.3133 110.739 84.42C110.739 83.5267 110.512 82.84 110.059 82.36C109.619 81.88 109.072 81.64 108.419 81.64C107.752 81.64 107.199 81.88 106.759 82.36C106.319 82.8267 106.099 83.5133 106.099 84.42C106.099 85.3133 106.312 86 106.739 86.48C107.179 86.96 107.725 87.2 108.379 87.2ZM120.573 90.16C119.6 90.16 118.733 89.9933 117.973 89.66C117.213 89.3267 116.613 88.8733 116.173 88.3C115.733 87.7133 115.486 87.06 115.433 86.34H118.813C118.853 86.7267 119.033 87.04 119.353 87.28C119.673 87.52 120.066 87.64 120.533 87.64C120.96 87.64 121.286 87.56 121.513 87.4C121.753 87.2267 121.873 87.0067 121.873 86.74C121.873 86.42 121.706 86.1867 121.373 86.04C121.04 85.88 120.5 85.7067 119.753 85.52C118.953 85.3333 118.286 85.14 117.753 84.94C117.22 84.7267 116.76 84.4 116.373 83.96C115.986 83.5067 115.793 82.9 115.793 82.14C115.793 81.5 115.966 80.92 116.313 80.4C116.673 79.8667 117.193 79.4467 117.873 79.14C118.566 78.8333 119.386 78.68 120.333 78.68C121.733 78.68 122.833 79.0267 123.633 79.72C124.446 80.4133 124.913 81.3333 125.033 82.48H121.873C121.82 82.0933 121.646 81.7867 121.353 81.56C121.073 81.3333 120.7 81.22 120.233 81.22C119.833 81.22 119.526 81.3 119.313 81.46C119.1 81.6067 118.993 81.8133 118.993 82.08C118.993 82.4 119.16 82.64 119.493 82.8C119.84 82.96 120.373 83.12 121.093 83.28C121.92 83.4933 122.593 83.7067 123.113 83.92C123.633 84.12 124.086 84.4533 124.473 84.92C124.873 85.3733 125.08 85.9867 125.093 86.76C125.093 87.4133 124.906 88 124.533 88.52C124.173 89.0267 123.646 89.4267 122.953 89.72C122.273 90.0133 121.48 90.16 120.573 90.16Z" fill="white"/>
<path d="M224.28 66.0347L232.421 69.8724L211.148 106.943L206 104.621L224.28 66.0347Z" fill="white"/>
<path d="M64.4904 139.357L67.5412 130.889L97.196 145.225L95.3505 150.562L64.4904 139.357Z" fill="white"/>
<path d="M242.681 102.051L249.647 107.75L232.403 123.405L228 119.869L242.681 102.051Z" fill="white"/>
<path d="M172.081 66.4558L181.07 66L179.137 95.7041L173.501 96.0559L172.081 66.4558Z" fill="white"/>
<path d="M128.074 63.6523L136.3 60L148.781 96.5738L143.655 98.9437L128.074 63.6523Z" fill="white"/>
<path d="M93.0541 103.714L99.0477 96.9998L114.415 115.323L110.694 119.57L93.0541 103.714Z" fill="white"/>
<rect x="35.2911" y="208.801" width="63.2156" height="26" rx="13" transform="rotate(12.5521 35.2911 208.801)" fill="white"/>
<path d="M43.1292 224.822C42.5481 224.317 42.7315 223.372 43.4593 223.121L46.7344 221.993C47.4622 221.742 48.1886 222.373 48.0419 223.129L47.3817 226.529C47.235 227.285 46.3252 227.599 45.7441 227.094L43.1292 224.822Z" fill="black"/>
<path d="M52.1803 229.545C51.6864 229.435 51.2618 229.25 50.9063 228.991C50.5596 228.726 50.3096 228.414 50.1562 228.057C50.0044 227.693 49.9704 227.306 50.0541 226.896L51.0956 227.128C51.0533 227.487 51.1303 227.816 51.3266 228.115C51.5317 228.409 51.8777 228.61 52.3644 228.718C52.8297 228.822 53.2202 228.788 53.5361 228.618C53.8607 228.443 54.0636 228.172 54.1449 227.807C54.2087 227.521 54.1817 227.271 54.0641 227.057C53.9465 226.843 53.7799 226.663 53.5644 226.517C53.3489 226.371 53.0527 226.2 52.6757 226.004C52.2105 225.765 51.8419 225.548 51.57 225.352C51.3052 225.158 51.0957 224.901 50.9415 224.581C50.7961 224.255 50.7752 223.86 50.8788 223.395C50.9696 222.987 51.1539 222.648 51.4316 222.38C51.7093 222.111 52.0534 221.932 52.4639 221.843C52.8815 221.756 53.3337 221.766 53.8204 221.875C54.5219 222.031 55.0555 222.334 55.4212 222.783C55.7941 223.235 55.9446 223.756 55.8728 224.349L54.7991 224.11C54.827 223.816 54.7325 223.532 54.5154 223.258C54.3 222.977 53.974 222.788 53.5373 222.691C53.1293 222.6 52.7725 222.633 52.467 222.791C52.1631 222.941 51.9689 223.206 51.8845 223.585C51.8239 223.857 51.8497 224.096 51.9617 224.301C52.081 224.508 52.2412 224.682 52.4424 224.825C52.6523 224.962 52.9485 225.133 53.331 225.338C53.7946 225.584 54.1616 225.809 54.432 226.012C54.7039 226.207 54.9162 226.469 55.0688 226.796C55.223 227.116 55.2475 227.512 55.1423 227.984C55.061 228.349 54.8879 228.671 54.6229 228.95C54.3579 229.229 54.0134 229.427 53.5894 229.543C53.1654 229.659 52.6957 229.659 52.1803 229.545ZM62.308 226.165C62.1693 226.788 61.839 227.259 61.3171 227.578C60.8039 227.892 60.1107 227.952 59.2374 227.758L57.7987 227.437L57.103 230.562L56.1259 230.344L57.7922 222.861L60.208 223.398C61.0527 223.586 61.6479 223.933 61.9937 224.438C62.3466 224.945 62.4514 225.521 62.308 226.165ZM59.4167 226.952C59.9607 227.074 60.3879 227.045 60.6982 226.866C61.0085 226.687 61.2122 226.379 61.3094 225.943C61.515 225.019 61.0881 224.44 60.0287 224.204L58.59 223.883L57.978 226.632L59.4167 226.952ZM66.2843 232.606L65.1833 229.149L64.0022 228.886L63.3209 231.946L62.3438 231.729L64.01 224.245L66.4259 224.783C66.9914 224.909 67.4459 225.111 67.7894 225.391C68.14 225.672 68.3753 225.998 68.4953 226.371C68.6153 226.743 68.6282 227.14 68.5342 227.562C68.4194 228.078 68.1679 228.499 67.7796 228.826C67.3985 229.154 66.8965 229.316 66.2737 229.313L67.4546 232.867L66.2843 232.606ZM64.1767 228.102L65.6155 228.423C66.1452 228.541 66.5711 228.5 66.8933 228.302C67.2172 228.096 67.4277 227.774 67.5249 227.338C67.6237 226.894 67.5678 226.521 67.3571 226.219C67.1536 225.918 66.7834 225.708 66.2466 225.588L64.8078 225.268L64.1767 228.102ZM71.5195 225.917L69.8533 233.401L68.8762 233.183L70.5425 225.699L71.5195 225.917ZM77.4025 235.081L76.4254 234.864L73.8224 228.03L72.4956 233.989L71.5185 233.771L73.1872 226.277L74.1643 226.494L76.7696 233.318L78.094 227.369L79.0711 227.587L77.4025 235.081ZM85.3405 228.994L85.1636 229.789L83.1236 229.334L81.6342 236.024L80.6571 235.806L82.1465 229.117L80.0957 228.66L80.2726 227.866L85.3405 228.994Z" fill="black"/>
<rect x="35.2911" y="208.801" width="63.2156" height="26" rx="13" transform="rotate(12.5521 35.2911 208.801)" stroke="black"/>
</g>
<defs>
<clipPath id="clip0_259_693">
<rect width="277" height="336" fill="white"/>
</clipPath>
</defs>
</svg>
