<svg width="21" height="21" viewBox="0 0 21 21" fill="none" xmlns="http://www.w3.org/2000/svg">
<rect x="1.75" y="1.95197" width="17.5" height="17.5" rx="6" fill="black"/>
<path d="M14.875 7.26447C14.875 7.78223 14.4553 8.20197 13.9375 8.20197C13.4197 8.20197 13 7.78223 13 7.26447C13 6.7467 13.4197 6.32697 13.9375 6.32697C14.4553 6.32697 14.875 6.7467 14.875 7.26447Z" fill="white"/>
<path fill-rule="evenodd" clip-rule="evenodd" d="M10.5 13.827C12.2259 13.827 13.625 12.4279 13.625 10.702C13.625 8.97608 12.2259 7.57697 10.5 7.57697C8.77411 7.57697 7.375 8.97608 7.375 10.702C7.375 12.4279 8.77411 13.827 10.5 13.827ZM10.5 12.577C11.5355 12.577 12.375 11.7375 12.375 10.702C12.375 9.66643 11.5355 8.82697 10.5 8.82697C9.46447 8.82697 8.625 9.66643 8.625 10.702C8.625 11.7375 9.46447 12.577 10.5 12.577Z" fill="white"/>
<path fill-rule="evenodd" clip-rule="evenodd" d="M4.25 10.452C4.25 8.35177 4.25 7.30167 4.65873 6.4995C5.01825 5.79389 5.59193 5.22022 6.29754 4.86069C7.0997 4.45197 8.1498 4.45197 10.25 4.45197H10.75C12.8502 4.45197 13.9003 4.45197 14.7025 4.86069C15.4081 5.22022 15.9817 5.79389 16.3413 6.4995C16.75 7.30167 16.75 8.35177 16.75 10.452V10.952C16.75 13.0522 16.75 14.1023 16.3413 14.9044C15.9817 15.61 15.4081 16.1837 14.7025 16.5432C13.9003 16.952 12.8502 16.952 10.75 16.952H10.25C8.1498 16.952 7.0997 16.952 6.29754 16.5432C5.59193 16.1837 5.01825 15.61 4.65873 14.9044C4.25 14.1023 4.25 13.0522 4.25 10.952V10.452ZM10.25 5.70197H10.75C11.8207 5.70197 12.5486 5.70294 13.1112 5.7489C13.6592 5.79368 13.9395 5.87484 14.135 5.97445C14.6054 6.21413 14.9878 6.59658 15.2275 7.06699C15.3271 7.26249 15.4083 7.54274 15.4531 8.09076C15.499 8.65337 15.5 9.38124 15.5 10.452V10.952C15.5 12.0227 15.499 12.7506 15.4531 13.3132C15.4083 13.8612 15.3271 14.1414 15.2275 14.3369C14.9878 14.8073 14.6054 15.1898 14.135 15.4295C13.9395 15.5291 13.6592 15.6103 13.1112 15.655C12.5486 15.701 11.8207 15.702 10.75 15.702H10.25C9.17928 15.702 8.45141 15.701 7.8888 15.655C7.34078 15.6103 7.06052 15.5291 6.86502 15.4295C6.39462 15.1898 6.01217 14.8073 5.77248 14.3369C5.67287 14.1414 5.59171 13.8612 5.54694 13.3132C5.50097 12.7506 5.5 12.0227 5.5 10.952V10.452C5.5 9.38124 5.50097 8.65337 5.54694 8.09076C5.59171 7.54274 5.67287 7.26249 5.77248 7.06699C6.01217 6.59658 6.39462 6.21413 6.86502 5.97445C7.06052 5.87484 7.34078 5.79368 7.8888 5.7489C8.45141 5.70294 9.17928 5.70197 10.25 5.70197Z" fill="white"/>
</svg>
