<svg width="60" height="60" viewBox="0 0 60 60" fill="none" xmlns="http://www.w3.org/2000/svg">
<g filter="url(#filter0_d_371_745)">
<path d="M30 14L30.3052 27.9749L34.7161 14.7108L30.8886 28.1548L39.0131 16.7802L31.393 28.4987L42.5093 20.0242L31.7736 28.976L44.894 24.1545L31.9967 29.5443L45.9553 28.8043L32.0423 30.153L45.5988 33.5603L31.9064 30.7482L43.8564 38L31.6012 31.2769L40.8828 41.7288L31.1537 31.6921L36.9421 44.4155L30.6037 31.957L32.3847 45.8213L30 32.048L27.6153 45.8213L29.3963 31.957L23.0579 44.4155L28.8463 31.6921L19.1172 41.7288L28.3988 31.2769L16.1436 38L28.0936 30.7482L14.4012 33.5603L27.9577 30.153L14.0447 28.8043L28.0033 29.5443L15.106 24.1545L28.2264 28.976L17.4907 20.0242L28.607 28.4987L20.9869 16.7802L29.1114 28.1548L25.2839 14.7108L29.6948 27.9749L30 14Z" fill="url(#paint0_radial_371_745)"/>
</g>
<defs>
<filter id="filter0_d_371_745" x="0.0446777" y="0" width="59.9106" height="59.8213" filterUnits="userSpaceOnUse" color-interpolation-filters="sRGB">
<feFlood flood-opacity="0" result="BackgroundImageFix"/>
<feColorMatrix in="SourceAlpha" type="matrix" values="0 0 0 0 0 0 0 0 0 0 0 0 0 0 0 0 0 0 127 0" result="hardAlpha"/>
<feOffset/>
<feGaussianBlur stdDeviation="7"/>
<feComposite in2="hardAlpha" operator="out"/>
<feColorMatrix type="matrix" values="0 0 0 0 1 0 0 0 0 1 0 0 0 0 1 0 0 0 1 0"/>
<feBlend mode="normal" in2="BackgroundImageFix" result="effect1_dropShadow_371_745"/>
<feBlend mode="normal" in="SourceGraphic" in2="effect1_dropShadow_371_745" result="shape"/>
</filter>
<radialGradient id="paint0_radial_371_745" cx="0" cy="0" r="1" gradientUnits="userSpaceOnUse" gradientTransform="translate(30 30) rotate(90) scale(16)">
<stop stop-color="#070707"/>
<stop offset="0.546875" stop-color="#555555"/>
</radialGradient>
</defs>
</svg>
