<svg width="12" height="12" viewBox="0 0 12 12" fill="none" xmlns="http://www.w3.org/2000/svg">
<path d="M6 0L6.06147 5.49372L7.43589 0.174349L6.18085 5.52314L8.78834 0.687264L6.28971 5.58028L9.97874 1.50894L6.38174 5.66181L10.9379 2.59161L6.45158 5.76299L11.6101 3.87237L6.49518 5.87795L11.9563 5.27678L6.51 6L11.9563 6.72322L6.49518 6.12205L11.6101 8.12763L6.45158 6.23701L10.9379 9.40839L6.38174 6.33819L9.97874 10.4911L6.28971 6.41972L8.78834 11.3127L6.18085 6.47686L7.43589 11.8257L6.06147 6.50628L6 12L5.93853 6.50628L4.56411 11.8257L5.81915 6.47686L3.21166 11.3127L5.71029 6.41972L2.02126 10.4911L5.61826 6.33819L1.0621 9.40839L5.54842 6.23701L0.389903 8.12763L5.50482 6.12205L0.0437469 6.72322L5.49 6L0.0437469 5.27678L5.50482 5.87795L0.389903 3.87237L5.54842 5.76299L1.0621 2.59161L5.61826 5.66181L2.02126 1.50894L5.71029 5.58028L3.21166 0.687264L5.81915 5.52314L4.56411 0.174349L5.93853 5.49372L6 0Z" fill="#070707"/>
</svg>
