<svg width="74" height="74" viewBox="0 0 74 74" fill="none" xmlns="http://www.w3.org/2000/svg">
<path d="M37 0L37.2091 34.0103L42.1494 0.360081L37.6231 34.0685L47.1986 1.43332L38.025 34.1837L52.0493 3.19882L38.407 34.3538L56.607 5.62222L38.7616 34.5754L60.7831 8.65635L39.0819 34.8441L64.4964 12.2422L39.3617 35.1549L67.6744 16.3099L39.5955 35.5015L70.2554 20.7803L39.7788 35.8773L72.1891 25.5664L39.908 36.275L73.4379 30.575L39.9806 36.6867L73.9775 35.7087L39.9952 37.1046L73.7973 40.8676L39.9515 37.5204L72.9009 45.9511L39.8503 37.9261L71.3058 50.8604L39.6937 38.3138L69.0429 55.5L39.4846 38.6759L66.1564 59.7795L39.2272 39.0054L62.7024 63.6156L38.9264 39.2958L58.7481 66.9336L38.5882 39.5416L54.3704 69.6691L38.219 39.7379L49.6547 71.7686L37.8261 39.8809L44.6927 73.1915L37.4171 39.9678L39.581 73.9099L37 39.997L34.419 73.9099L36.5829 39.9678L29.3073 73.1915L36.1739 39.8809L24.3453 71.7686L35.781 39.7379L19.6296 69.6691L35.4118 39.5416L15.2519 66.9336L35.0736 39.2958L11.2976 63.6156L34.7728 39.0054L7.8436 59.7795L34.5154 38.6759L4.95706 55.5L34.3063 38.3138L2.6942 50.8604L34.1497 37.9261L1.09906 45.9511L34.0485 37.5204L0.20269 40.8676L34.0048 37.1046L0.022541 35.7087L34.0194 36.6867L0.562115 30.575L34.092 36.275L1.81091 25.5664L34.2212 35.8773L3.74462 20.7803L34.4045 35.5015L6.32561 16.3099L34.6383 35.1549L9.50364 12.2422L34.9181 34.8441L13.2169 8.65635L35.2384 34.5754L17.393 5.62222L35.593 34.3538L21.9507 3.19882L35.975 34.1837L26.8014 1.43332L36.3769 34.0685L31.8506 0.360081L36.7909 34.0103L37 0Z" fill="#070707"/>
</svg>
