<svg width="32" height="32" viewBox="0 0 32 32" fill="none" xmlns="http://www.w3.org/2000/svg">
<path d="M16 0L16.3052 13.9749L20.7161 0.710835L16.8886 14.1548L25.0131 2.78018L17.393 14.4987L28.5093 6.02416L17.7736 14.976L30.894 10.1545L17.9967 15.5443L31.9553 14.8043L18.0423 16.153L31.5988 19.5603L17.9064 16.7482L29.8564 24L17.6012 17.2769L26.8828 27.7288L17.1537 17.6921L22.9421 30.4155L16.6037 17.957L18.3847 31.8213L16 18.048L13.6153 31.8213L15.3963 17.957L9.05786 30.4155L14.8463 17.6921L5.11724 27.7288L14.3988 17.2769L2.14359 24L14.0936 16.7482L0.401154 19.5603L13.9577 16.153L0.0447388 14.8043L14.0033 15.5443L1.10602 10.1545L14.2264 14.976L3.4907 6.02416L14.607 14.4987L6.98688 2.78018L15.1114 14.1548L11.2839 0.710835L15.6948 13.9749L16 0Z" fill="url(#paint0_radial_371_745)"/>
<defs>
<radialGradient id="paint0_radial_371_745" cx="0" cy="0" r="1" gradientUnits="userSpaceOnUse" gradientTransform="translate(16 16) rotate(90) scale(16)">
<stop stop-color="#070707"/>
<stop offset="0.442708" stop-color="#6B00D7"/>
</radialGradient>
</defs>
</svg>
