<svg width="391" height="390" viewBox="0 0 391 390" fill="none" xmlns="http://www.w3.org/2000/svg">
<path d="M206.081 0.205513L196.727 187.577L230.407 3.02012L197.643 187.742L254.188 8.86141L198.531 188.02L277.05 17.6372L199.377 188.408L298.632 29.2092L200.168 188.898L318.593 43.3948L200.891 189.484L336.618 59.9704L201.535 190.155L352.425 78.6744L202.09 190.903L365.762 99.212L202.547 191.713L376.42 121.259L202.898 192.575L384.231 144.469L203.139 193.474L389.071 168.474L203.265 194.396L390.864 192.896L203.275 195.326L389.583 217.351L203.168 196.25L385.246 241.452L202.946 197.154L377.923 264.82L202.613 198.023L367.729 287.086L202.173 198.843L354.825 307.898L201.634 199.602L339.414 326.929L201.004 200.287L321.739 343.878L200.293 200.887L302.08 358.479L199.513 201.394L280.745 370.5L198.675 201.799L258.072 379.753L197.793 202.096L234.418 386.091L196.881 202.28L210.157 389.415L195.953 202.348L185.67 389.671L195.023 202.299L161.344 386.856L194.108 202.134L137.562 381.015L193.22 201.856L114.7 372.239L192.374 201.469L93.1188 360.667L191.583 200.978L73.1577 346.482L190.86 200.393L55.1319 329.906L190.215 199.721L39.3257 311.202L189.661 198.974L25.9884 290.664L189.204 198.163L15.3304 268.617L188.852 197.302L7.51961 245.408L188.611 196.403L2.67931 221.403L188.485 195.481L0.885831 196.98L188.475 194.55L2.16745 172.526L188.582 193.626L6.50396 148.424L188.804 192.722L13.827 125.057L189.138 191.854L24.021 102.791L189.577 191.034L36.9252 81.9784L190.117 190.275L52.3362 62.9475L190.746 189.59L70.0109 45.9981L191.457 188.989L89.6705 31.3975L192.238 188.483L111.005 19.3761L193.075 188.078L133.678 10.1234L193.957 187.781L157.332 3.78539L194.87 187.597L181.594 0.461944L195.798 187.529L206.081 0.205513Z" fill="url(#paint0_radial_446_691)"/>
<defs>
<radialGradient id="paint0_radial_446_691" cx="0" cy="0" r="1" gradientUnits="userSpaceOnUse" gradientTransform="translate(195.875 194.938) rotate(93) scale(195)">
<stop stop-color="#5AE8FF"/>
<stop offset="1" stop-color="#F73BCD"/>
</radialGradient>
</defs>
</svg>
